<?xml version="1.0" standalone="no"?>
<!DOCTYPE svg PUBLIC "-//W3C//DTD SVG 1.1//EN" "http://www.w3.org/Graphics/SVG/1.1/DTD/svg11.dtd" >
<svg xmlns="http://www.w3.org/2000/svg">
<metadata>
This is a custom SVG font generated by IcoMoon.
<iconset grid="16"></iconset>
</metadata>
<defs>
<font id="icomoon" horiz-adv-x="1024" >
<font-face units-per-em="1024" ascent="960" descent="-64" />
<missing-glyph horiz-adv-x="1024" />
<glyph class="hidden" unicode="&#xf000;" d="M0,960L 1024 -64L0 -64 z" horiz-adv-x="0" />
<glyph unicode="&#xe000;" d="M 1024,369.556 L 512,766.982 L 0,369.554 L 0,531.592 L 512,929.018 L 1024,531.59 ZM 896,384 L 896,0 L 640,0 L 640,256 L 384,256 L 384,0 L 128,0 L 128,384 L 512,672 Z" data-tags="home, house, building" />
<glyph unicode="&#xe001;" d="M 1024,352L 832,544L 832,832L 704,832L 704,672L 512,864L0,352L0,320L 128,320L 128,0L 448,0L 448,192L 576,192L 576,0L 896,0L 896,320L 1024,320 z" data-tags="home, house, building" />
<glyph unicode="&#xe002;" d="M 512,896L0,384l 96-96l 96,96l 64-384l 192,0 l0,192 l 128,0 l0-192 l 192,0 l 64,384l 96-96l 96,96L 512,896z M 512,485.492
		c-49.988,0-90.512,40.52-90.512,90.508s 40.524,90.51, 90.512,90.51c 49.984,0, 90.51-40.524, 90.51-90.51
		C 602.51,526.012, 561.984,485.492, 512,485.492z" data-tags="home, house, building" />
<glyph unicode="&#xe003;" d="M0-64l 512,0 L 512,960 L0,960 L0-64 z M 320,832l 128,0 l0-128 l-128,0 L 320,832 z M 320,576l 128,0 l0-128 l-128,0 L 320,576 z M 320,320l 128,0 l0-128 l-128,0 L 320,320 z M 64,832l 128,0 l0-128 L 64,704 L 64,832 z M 64,576
			l 128,0 l0-128 L 64,448 L 64,576 z M 64,320l 128,0 l0-128 L 64,192 L 64,320 zM 576,640L 1024,640L 1024,576L 576,576zM 576-64L 704-64L 704,192L 896,192L 896-64L 1024-64L 1024,512L 576,512 		z" data-tags="office, home, house, work, building" />
<glyph unicode="&#xe004;" d="M 896,704L 896,832 L0,832 l0-704 c0-35.346, 28.654-64, 64-64l 864,0 c 53.022,0, 96,42.978, 96,96L 1024,704 L 896,704 z M 832,128L 64,128 L 64,768 l 768,0 L 832,128 zM 128,640L 768,640L 768,576L 128,576zM 512,512L 768,512L 768,448L 512,448zM 512,384L 768,384L 768,320L 512,320zM 512,256L 704,256L 704,192L 512,192zM 128,512L 448,512L 448,192L 128,192z" data-tags="newspaper, paper" />
<glyph unicode="&#xe005;" d="M 864,960 C 952.364,960 1024,888.366 1024,800 C 1024,763.98 1012.090,730.742 992,704 L 928,640 L 704,864 L 768,928 C 794.742,948.090 827.978,960 864,960 ZM 64,224L0-64l 288,64l 592,592L 656,816L 64,224z M 715.578,596.422l-448-448l-55.156,55.156l 448,448L 715.578,596.422z" data-tags="pencil, write, edit, blog, note" />
<glyph unicode="&#xe006;" d="M 384,320l 128,64L 960,832l-64,64L 448,448L 384,320z M 289.3,92.902c-31.632,66.728-65.666,100.762-132.396,132.394L 256,498.088
	L 384,576L 768,960l-192,0 L 192,576L0-64l 640,192l 384,384l0,192 L 640,320l-77.912-128" data-tags="pencil, write, edit, blog, note" />
<glyph unicode="&#xe007;" d="M 384,373.334c0,0, 203.944,122.36, 318.766,74.026c 23.802,36.268, 47.248,75.336, 70.202,115.222
	C 660.642,590.102, 512,565.334, 512,565.334s 190.212,114.122, 306.666,78.4c 23.35,42.108, 46.054,83.642, 67.956,122.304
	C 793.846,772.306, 704,757.334, 704,757.334s 119.148,71.488, 226.578,83.598C 964.376,895.792, 995.748,938.812, 1024,960C 463,960, 128,320,0-64
	l 64,0 l 192,320c0,0, 64-64, 256,0c 45.474,15.158, 90.948,57.252, 135.572,113.934C 534.956,398.488, 384,373.334, 384,373.334z" data-tags="quill, feather, write, blog, edit" />
<glyph unicode="&#xe008;" d="M 960.004,671.994L 736.006,895.992L 800.006,959.992L 1024.004,735.994zM 896,608 L 864,256 C 576,256 160-64 160-64 L 106.87-10.87 L 380.534,262.794 C 391.508,258.426 403.468,256 416,256 C 469.020,256 512,298.98 512,352 C 512,405.020 469.020,448 416,448 C 362.98,448 320,405.020 320,352 C 320,339.468 322.426,327.51 326.794,316.534 L 53.13,42.87 L 0,96 C 0,96 320,512 320,800 L 672,832 L 896,608 Z" data-tags="pen, blog, write, edit, note" />
<glyph unicode="&#xe009;" d="M 384,768 C 631.424,768 832,567.422 832,320 L 736,320 C 736,414.024 699.386,502.418 632.902,568.902 C 566.418,635.386 478.022,672 384,672 L 384,768 ZM 384,960 C 737.46,960 1024,673.46 1024,320 L 928,320 C 928,393.48 913.63,464.714 885.29,531.718 C 857.894,596.486 818.656,654.674 768.666,704.666 C 718.674,754.658 660.486,793.896 595.718,821.29 C 528.714,849.63 457.482,864 384,864 L 384,960 ZM 574.39,510.392 C 618.148,466.636 639.986,409.286 639.96,351.942 C 576,255.946 576,128 576,128 C 320,128 128-64 128-64 L 114-50 L 90.87-26.87 L 374.452,256.712 C 377.568,256.246 380.754,256 384,256 C 419.346,256 448,284.654 448,320 C 448,355.346 419.346,384 384,384 C 348.654,384 320,355.346 320,320 C 320,316.754 320.246,313.566 320.712,310.452 L 37.13,26.87 L 0,64 C 0,64 192,256 192,512 C 192,512 319.998,512 415.998,576 C 473.326,576 530.652,554.13 574.39,510.392 Z" data-tags="blog, pen, feed, publish, broadcast, write" />
<glyph unicode="&#xe00a;" d="M 895.94,326.498c-0.012,0.706-0.030,1.402-0.042,2.106c-0.032,1.428-0.070,2.854-0.118,4.28C 885.75,648.532, 512,960, 512,960
		S 138.246,648.532, 128.22,332.878c-0.044-1.43-0.088-2.852-0.12-4.282c-0.014-0.704-0.030-1.402-0.042-2.106
		c-0.036-2.16-0.056-4.324-0.056-6.496c0-2.368, 0.028-4.722, 0.070-7.078c 0.004-0.196, 0.006-0.39, 0.014-0.586
		C 132.164,103.798, 302.482-64, 512-64c 209.516,0, 379.832,167.798, 383.918,376.336c 0.004,0.196, 0.008,0.392, 0.010,0.586
		c 0.042,2.356, 0.072,4.714, 0.072,7.078C 896,322.172, 895.976,324.336, 895.94,326.498z M 767.95,315.26l-0.008-0.406
		c-1.318-67.286-28.532-130.334-76.626-177.548C 643.174,90.034, 579.486,64, 512,64c-12.462,0-24.794,0.894-36.924,2.638
		c 139.056,82.846, 232.216,234.704, 232.216,408.322c0,19.456-1.18,38.634-3.452,57.48c 40.272-73.94, 62.064-142.8, 64.002-203.626
		l 0.004-0.144c 0.032-0.948, 0.052-1.892, 0.078-2.844l 0.028-1.448C 767.98,322.922, 768,321.46, 768,320
		C 768,318.416, 767.98,316.838, 767.95,315.26z" data-tags="droplet, colors, water" />
<glyph unicode="&#xe00b;" d="M 1024,384L 1024,768 l-192,0 L 832,832 c0,35.2-28.8,64-64,64L 64,896 C 28.8,896,0,867.2,0,832l0-192 c0-35.2, 28.8-64, 64-64l 704,0 c 35.2,0, 64,28.8, 64,64l0,64 l 128,0 
	l0-256 L 384,448 l0-128 l-32,0 c-17.674,0-32-14.326-32-32l0-320 c0-17.674, 14.326-32, 32-32l 128,0 c 17.674,0, 32,14.326, 32,32L 512,288 c0,17.674-14.326,32-32,32l-32,0 l0,64 
	L 1024,384 z M 768,768L 64,768 L 64,832 l 704,0 L 768,768 z" data-tags="paint-format, format" />
<glyph unicode="&#xe00c;" d="M 896,768 L 128,768 L 128,128 L 896,128 L 896,768 Z M 1024,896 L 1024,896 L 1024,0 L 0,0 L 0,896 L 1024,896 ZM 832,192 L 192,192 L 192,320 L 384,640 L 647,320 L 832,448 L 832,384 ZM 640,608A96,96 2700 1 0 832,608A96,96 2700 1 0 640,608z" data-tags="image, picture, photo, graphic" />
<glyph unicode="&#xe00d;" d="M0,832l0-832 l 1024,0 L 1024,832 L0,832 z M 960,64L 64,64 L 64,768 l 896,0 L 960,64 zM 704,608A96,96 2700 1 0 896,608A96,96 2700 1 0 704,608zM 896,128 L 128,128 L 320,640 L 576,320 L 704,416 Z" data-tags="image, picture, photo, graphic" />
<glyph unicode="&#xe00e;" d="M 128,704l0-640 l 896,0 L 1024,704 L 128,704 z M 960,170.666L 832,384l-145.066-120.888L 576,448L 192,128L 192,640 l 768,0 L 960,170.666 zM 256,480A96,96 7740 1 0 448,480A96,96 7740 1 0 256,480zM 896,832L0,832L0,192L 64,192L 64,768L 896,768 	z" data-tags="images, pictures, photos, graphics" />
<glyph unicode="&#xe00f;" d="M 304,352c0-114.876, 93.124-208, 208-208s 208,93.124, 208,208s-93.124,208-208,208S 304,466.876, 304,352z M 960,704L 736,704 
	c-16,64-32,128-96,128L 384,832 c-64,0-80-64-96-128L 64,704 c-35.2,0-64-28.8-64-64l0-576 c0-35.2, 28.8-64, 64-64l 896,0 c 35.2,0, 64,28.8, 64,64L 1024,640 
	C 1024,675.2, 995.2,704, 960,704z M 512,68c-156.85,0-284,127.148-284,284c0,156.85, 127.15,284, 284,284c 156.852,0, 284-127.15, 284-284
	C 796,195.148, 668.854,68, 512,68z M 960,512l-128,0 l0,64 l 128,0 L 960,512 z" data-tags="camera, photo, picture, image" />
<glyph unicode="&#xe010;" d="M 320,768 L 1024,960 L 1024,896 L 1024,768 L 1024,224 C 1024,135.634 923.71,64 800,64 C 676.29,64 576,135.634 576,224 C 576,312.366 676.29,384 800,384 C 834.358,384 866.902,378.468 896,368.594 L 896,698.182 L 448,576 L 448,96 C 448,7.634 347.712-64 224-64 C 100.288-64 0,7.634 0,96 C 0,184.366 100.288,256 224,256 C 258.358,256 290.902,250.468 320,240.594 L 320,576 L 320,768 Z" data-tags="music, song, audio, sound" />
<glyph unicode="&#xe011;" d="M 192,381.714l0-443.43 c 10.454-1.496, 21.134-2.286, 32-2.286l 32,0 L 256,384 l-32,0 C 213.134,384, 202.454,383.21, 192,381.714zM 768,384l0-448 l 32,0 c 10.868,0, 21.546,0.79, 32,2.286L 832,381.714 c-10.454,1.496-21.132,2.286-32,2.286L 768,384 zM 1024,448C 1024,730.77, 794.77,960, 512,960S0,730.77,0,448c0-61.418, 10.828-120.306, 30.656-174.874C 11.184,239.924,0,201.274,0,160
		c0-89.354, 52.326-166.478, 128-202.432L 128,362.432 c-20.126-9.562-38.58-22.060-54.858-36.904C 67.15,354.748, 64,385.006, 64,416
		C 64,663.424, 264.576,864, 512,864s 448-200.576, 448-448c0-30.994-3.148-61.252-9.142-90.472c-16.28,14.844-34.73,27.342-54.858,36.904
		l0-404.864 c 75.676,35.954, 128,113.078, 128,202.432c0,41.274-11.184,79.924-30.656,113.126C 1013.172,327.694, 1024,386.582, 1024,448z" data-tags="headphones, headset, music, song, audio" />
<glyph unicode="&#xe012;" d="M 981.188,799.892C 837.556,820.542, 678.856,832, 512.002,832c-166.86,0-325.556-11.458-469.194-32.108
	C 15.278,692.166,0,573.142,0,448c0-125.14, 15.278-244.166, 42.808-351.89C 186.446,75.458, 345.144,64, 512.002,64
	c 166.854,0, 325.552,11.458, 469.186,32.11C 1008.72,203.834, 1024,322.86, 1024,448C 1024,573.142, 1008.72,692.166, 981.188,799.892z
	 M 384.002,256L 384.002,640 l 320-192L 384.002,256z" data-tags="play, video, movie" />
<glyph unicode="&#xe013;" d="M0,832l0-768 l 1024,0 L 1024,832 L0,832 z M 192,128L 64,128 l0,128 l 128,0 L 192,128 z M 192,384L 64,384 l0,128 l 128,0 L 192,384 z M 192,640L 64,640 L 64,768 l 128,0 L 192,640 z M 768,128L 256,128 L 256,768 l 512,0 L 768,128 z
		 M 960,128l-128,0 l0,128 l 128,0 L 960,128 z M 960,384l-128,0 l0,128 l 128,0 L 960,384 z M 960,640l-128,0 L 832,768 l 128,0 L 960,640 zM 384,640L 384,256L 640,448 	z" data-tags="film, video, movie, tape, play" />
<glyph unicode="&#xe014;" d="M 384,672A160,160 10980 1 0 704,672A160,160 10980 1 0 384,672zM0,672A160,160 10980 1 0 320,672A160,160 10980 1 0 0,672zM 768,352l0,96 c0,35.2-28.8,64-64,64l-160,0 L 160,512 L 64,512 c-35.2,0-64-28.8-64-64l0-320 c0-35.2, 28.8-64, 64-64l 640,0 c 35.2,0, 64,28.8, 64,64
		l0,96 l 256-160L 1024,512 L 768,352z M 640,192L 128,192 l0,192 l 512,0 L 640,192 z" data-tags="camera, video, media, film, movie" />
<glyph unicode="&#xe015;" d="M 864,768L 352,768 c-88,0-160-72-160-160l0-512 c0-88, 72-160, 160-160l 512,0 c 88,0, 160,72, 160,160L 1024,608 C 1024,696, 952,768, 864,768z M 416,64
	c-53.020,0-96,42.98-96,96s 42.98,96, 96,96s 96-42.98, 96-96S 469.020,64, 416,64z M 416,448c-53.020,0-96,42.98-96,96s 42.98,96, 96,96
	s 96-42.98, 96-96S 469.020,448, 416,448z M 608,256c-53.020,0-96,42.98-96,96s 42.98,96, 96,96s 96-42.98, 96-96S 661.020,256, 608,256z M 800,64
	c-53.020,0-96,42.98-96,96s 42.98,96, 96,96s 96-42.98, 96-96S 853.020,64, 800,64z M 800,448c-53.020,0-96,42.98-96,96s 42.98,96, 96,96
	s 96-42.98, 96-96S 853.020,448, 800,448z M 828.76,832C 813.83,904.804, 749.050,960, 672,960L 160,960 C 72,960,0,888,0,800l0-512 
	c0-77.046, 55.196-141.83, 128-156.76L 128,768 c0,35.2, 28.8,64, 64,64L 828.76,832 z" data-tags="dice, die, game, chance, luck, random, gample" />
<glyph unicode="&#xe016;" d="M 964.73,781.196C 870.828,890.646, 731.52,960, 576,960C 293.23,960, 64,730.77, 64,448s 229.23-512, 512-512
	c 155.52,0, 294.828,69.356, 388.728,178.804L 640,448L 964.73,781.196z M 704,839.398c 39.432,0, 71.398-31.964, 71.398-71.398
	c0-39.432-31.966-71.398-71.398-71.398S 632.602,728.568, 632.602,768C 632.602,807.432, 664.568,839.398, 704,839.398z" data-tags="pacman, game, arcade" />
<glyph unicode="&#xe017;" d="M 817.57,611.85C 624.004,755.708, 557.304,870.868, 512.004,959.998l0,0C 512,959.998, 512,960, 512,960l0-0.002 
	c-45.296-89.13-112-204.292-305.566-348.148c-330.036-245.286-19.376-587.668, 253.758-399.224
	c-17.796-116.93-78.53-202.172-140.208-238.882L 319.984-64 l 192.016,0 l 192.016,0 l0,37.74 c-61.682,36.708-122.41,121.954-140.212,238.884
	C 836.94,24.178, 1147.604,366.564, 817.57,611.85z" data-tags="spades, bet, game, gamble, cards" />
<glyph unicode="&#xe018;" d="M 786.832,567.228c-59.032,0-112.086-24.596-149.852-64.694c-15.996-16.984-43.762-37.112-73.8-54.81
	c 14.11,53.868, 58.676,121.7, 89.628,151.456c 39.64,38.17, 63.984,91.83, 63.984,151.5C 716.798,865.574, 625.316,958.776, 512.004,960
	c-113.32-1.222-204.796-94.426-204.796-209.318c0-59.672, 24.344-113.33, 63.986-151.5c 30.954-29.756, 75.52-97.588, 89.628-151.456
	c-30.042,17.7-57.806,37.826-73.8,54.81c-37.768,40.098-90.82,64.694-149.85,64.694c-114.386,0-207.080-93.664-207.080-209.328
	c0-115.638, 92.692-209.338, 207.080-209.338c 59.042,0, 112.082,25.356, 149.85,65.452c 16.804,17.872, 46.444,40.138, 78.292,58.632
	c-3.002-147.692-73.532-256.168-145.318-298.906L 319.996-64 l 192.010,0 l 192.004,0 l0,37.74 c-71.792,42.736-142.32,151.216-145.32,298.906
	c 31.852-18.494, 61.488-40.768, 78.292-58.632c 37.766-40.094, 90.808-65.452, 149.852-65.452c 114.386,0, 207.078,93.7, 207.078,209.338
	C 993.91,473.564, 901.22,567.228, 786.832,567.228z" data-tags="clubs, bet, game, gamble, cards" />
<glyph unicode="&#xe019;" d="M 512,960L 192,448L 512-64L 832,448 z" data-tags="diamonds, bet, game, gamble, cards" />
<glyph unicode="&#xe01a;" d="M 736.020,324.040C 756.386,360.77, 768,403.026, 768,448c0,103.314-61.208,192.324-149.334,232.772
	C 651.39,710.070, 672,752.622, 672,800c0,88.366-71.634,160-160,160c-88.366,0-160-71.634-160-160c0-47.38, 20.61-89.93, 53.334-119.228
	C 317.208,640.324, 256,551.314, 256,448c0-44.974, 11.612-87.23, 31.98-123.96C 154.088,246.574, 64,101.812, 64-64l 896,0 
	C 960,101.812, 869.912,246.574, 736.020,324.040z" data-tags="pawn, chess, game" />
<glyph unicode="&#xe01b;" d="M 1024,530.744c0,200.926-58.792,363.938-131.482,365.226c 0.292,0.006, 0.578,0.030, 0.872,0.030l-82.942,0 
	c0,0-194.8-146.336-475.23-203.754c-8.56-45.292-14.030-99.274-14.030-161.502c0-62.228, 5.466-116.208, 14.030-161.5
	c 280.428-57.418, 475.23-203.756, 475.23-203.756l 82.942,0 c-0.292,0-0.578,0.024-0.872,0.032C 965.214,166.808, 1024,329.818, 1024,530.744
	z M 864.824,220.748c-9.382,0-19.532,9.742-24.746,15.548c-12.63,14.064-24.792,35.96-35.188,63.328
	c-23.256,61.232-36.066,143.31-36.066,231.124c0,87.81, 12.81,169.89, 36.066,231.122c 10.394,27.368, 22.562,49.266, 35.188,63.328
	c 5.214,5.812, 15.364,15.552, 24.746,15.552c 9.38,0, 19.536-9.744, 24.744-15.552c 12.634-14.064, 24.796-35.958, 35.188-63.328
	c 23.258-61.23, 36.068-143.312, 36.068-231.122c0-87.804-12.81-169.888-36.068-231.124c-10.39-27.368-22.562-49.264-35.188-63.328
	C 884.36,230.49, 874.208,220.748, 864.824,220.748z M 251.812,530.744c0,51.95, 3.81,102.43, 11.052,149.094
	c-47.372-6.554-88.942-10.324-140.34-10.324c-67.058,0-67.058,0-67.058,0L0,574.828l0-88.17 l 55.46-94.686c0,0,0,0, 67.060,0
	c 51.398,0, 92.968-3.774, 140.34-10.324C 255.624,428.312, 251.812,478.794, 251.812,530.744z M 368.15,317.828l-127.998,24.51
	l 81.842-321.544c 4.236-16.634, 20.744-25.038, 36.686-18.654l 118.556,47.452c 15.944,6.376, 22.328,23.964, 14.196,39.084L 368.15,317.828zM 864.824,411.27c-3.618,0-7.528,3.754-9.538,5.992c-4.87,5.42-9.556,13.86-13.562,24.408
	c-8.962,23.6-13.9,55.234-13.9,89.078c0,33.844, 4.938,65.478, 13.9,89.078c 4.006,10.548, 8.696,18.988, 13.562,24.408
	c 2.010,2.24, 5.92,5.994, 9.538,5.994c 3.616,0, 7.53-3.756, 9.538-5.994c 4.87-5.42, 9.556-13.858, 13.56-24.408
	c 8.964-23.598, 13.902-55.234, 13.902-89.078c0-33.842-4.938-65.478-13.902-89.078c-4.004-10.548-8.696-18.988-13.56-24.408
	C 872.354,415.024, 868.442,411.27, 864.824,411.27z" data-tags="bullhorn, megaphone, announcement, advertisement, news" />
<glyph unicode="&#xe01c;" d="M 640,384 C 745.87,384 841.87,340.934 911.402,271.402 L 820.934,180.934 C 774.58,227.29 710.578,256 640,256 C 569.422,256 505.422,227.29 459.066,180.934 L 368.598,271.402 C 438.13,340.934 534.13,384 640,384 ZM 187.452,452.548 C 308.332,573.428 469.050,640 640,640 C 810.95,640 971.668,573.428 1092.55,452.548 L 1002.040,362.040 L 1002.040,362.040 C 905.334,458.744 776.76,512 640,512 C 503.238,512 374.666,458.744 277.962,362.038 L 187.452,452.548 ZM 988.784,825.562 C 1095.486,780.43 1191.3,715.834 1273.566,633.566 L 1273.566,633.566 L 1183.058,543.058 C 1038.002,688.114 845.138,768 640,768 C 434.86,768 242,688.114 96.942,543.058 L 6.432,633.568 C 88.7,715.834 184.514,780.43 291.216,825.562 C 401.72,872.3 519.068,896 640,896 C 760.932,896 878.278,872.3 988.784,825.562 ZM 576,64A64,64 2700 1 0 704,64A64,64 2700 1 0 576,64z" horiz-adv-x="1280" data-tags="connection, broadcast, wifi, wave, feed" />
<glyph unicode="&#xe01d;" d="M 1024,448C 1024,730.77, 794.77,960, 512,960S0,730.77,0,448c0-220.054, 138.836-407.664, 333.686-480.068L 320-64l 384,0 l-13.686,31.932
	C 885.164,40.336, 1024,227.946, 1024,448z M 486.79,325.174C 463.982,334.962, 448,357.61, 448,384c0,35.346, 28.654,64, 64,64
	c 35.346,0, 64-28.654, 64-64c0-26.39-15.978-49.044-38.786-58.834L 512,384L 486.79,325.174z M 538.268,322.708
	C 596.36,334.826, 640,386.31, 640,448c0,70.694-57.306,128-128,128c-70.692,0-128-57.306-128-128c0-61.692, 43.662-113.122, 101.76-125.228
	l-74.624-174.122C 319.906,187.8, 256,278.434, 256,384c0,141.384, 114.616,268, 256,268s 256-126.616, 256-268
	c0-105.566-63.906-196.2-155.136-235.35L 538.268,322.708z M 688.448-27.708l-73.924,172.486C 740.97,187.516, 832,307.124, 832,448
	c0,176.73-143.268,320-320,320c-176.73,0-320-143.27-320-320c0-140.876, 91.030-260.484, 217.476-303.222l-73.924-172.486
	C 175.958,40.78, 64.166,199.326, 64.166,384C 64.166,631.332, 264.668,843.834, 512,843.834c 247.332,0, 447.834-212.502, 447.834-459.834
	C 959.834,199.326, 848.042,40.78, 688.448-27.708z" data-tags="podcast, broadcast, live, wave, radio, feed" />
<glyph unicode="&#xe01e;" d="M 384,448A128,128 2700 1 0 640,448A128,128 2700 1 0 384,448zM 664.348,729.474 C 764.2,675.316 832,569.576 832,448 C 832,326.424 764.2,220.684 664.348,166.526 C 708.414,236.652 736,336.796 736,448 C 736,559.204 708.414,659.348 664.348,729.474 ZM 288,448 C 288,336.796 315.584,236.652 359.652,166.526 C 259.8,220.686 192,326.424 192,448 C 192,569.576 259.8,675.314 359.652,729.474 C 315.584,659.348 288,559.204 288,448 ZM 96,448 C 96,276.1 150.404,121.816 236.652,16.278 C 94.35,107.226 0,266.592 0,448 C 0,629.408 94.35,788.774 236.652,879.722 C 150.404,774.184 96,619.9 96,448 ZM 787.352,879.72 C 929.65,788.774 1024,629.408 1024,448 C 1024,266.592 929.65,107.226 787.352,16.28 C 873.596,121.816 928,276.1 928,448 C 928,619.9 873.596,774.184 787.352,879.72 Z" data-tags="feed, wave, radio, live, broadcast" />
<glyph unicode="&#xe01f;" d="M 896,832l0-832 L 224,0 c-53.022,0-96,42.98-96,96c0,53.018, 42.978,96, 96,96l 608,0 L 832,960 L 192,960 C 121.602,960, 64,902.4, 64,832l0-768 
		c0-70.4, 57.602-128, 128-128l 768,0 L 960,832 L 896,832 zM 256,128L 832,128L 832,64L 256,64z" data-tags="book, reading" />
<glyph unicode="&#xe020;" d="M 576.234,670.73L 818.946,752.162L 1022.53,145.378L 779.818,63.946zM0,64l 256,0 L 256,768 L0,768 L0,64 z M 64,640l 128,0 l0-64 L 64,576 L 64,640 zM 320,64l 256,0 L 576,768 L 320,768 L 320,64 z M 384,640l 128,0 l0-64 l-128,0 L 384,640 z" data-tags="books, library, archive" />
<glyph unicode="&#xe021;" d="M 512,960L0,640l 1024,0 L 512,960z M 800,576l 32-64l0-384 l 128,0 L 960,512 l 32,64L 800,576 z M 544,576l 32-64l0-384 l 128,0 L 704,512 l 32,64L 544,576 z M 288,576l 32-64l0-384 l 128,0 
	L 448,512 l 32,64L 288,576 z M 32,576l 32-64l0-384 l 128,0 L 192,512 l 32,64L 32,576 z M 32,64L0-64l 1024,0 l-32,128L 32,64 z M 576,768c0-35.346-28.654-64-64-64
	c-35.346,0-64,28.654-64,64s 28.654,64, 64,64C 547.346,832, 576,803.346, 576,768z" data-tags="library, reading, building" />
<glyph unicode="&#xe022;" d="M 864,960L 96,960 C 43.2,960,0,916.8,0,864l0-832 c0-52.8, 43.2-96, 96-96l 768,0 c 52.8,0, 96,43.2, 96,96L 960,864 C 960,916.8, 916.8,960, 864,960z M 832,64L 128,64 
		L 128,832 l 704,0 L 832,64 zM 256,512L 704,512L 704,448L 256,448zM 256,384L 704,384L 704,320L 256,320zM 256,256L 704,256L 704,192L 256,192zM 256,640L 704,640L 704,576L 256,576z" data-tags="file, list, paper, page, document" />
<glyph unicode="&#xe023;" d="M 864,960L 96,960 C 43.2,960,0,916.8,0,864l0-832 c0-52.8, 43.2-96, 96-96l 768,0 c 52.8,0, 96,43.2, 96,96L 960,864 C 960,916.8, 916.8,960, 864,960z M 832,64L 128,64 
		L 128,832 l 704,0 L 832,64 zM 256,384L 704,384L 704,320L 256,320zM 256,256L 704,256L 704,192L 256,192zM 320,672A96,96 4860 1 0 512,672A96,96 4860 1 0 320,672zM 480,576l-128,0 c-52.8,0-96-28.8-96-64l0-64 l 320,0 l0,64 C 576,547.2, 532.8,576, 480,576z" data-tags="profile, page, user, paper, file, document" />
<glyph unicode="&#xe024;" d="M 892.118,771.882l-120.234,120.236C 734.546,929.454, 660.8,960, 608,960L 160,960 C 107.2,960, 64,916.8, 64,864l0-832 c0-52.8, 43.2-96, 96-96l 704,0 
	c 52.8,0, 96,43.2, 96,96L 960,608 C 960,660.8, 929.454,734.546, 892.118,771.882z M 640,824.438c 2.196-0.804, 4.452-1.68, 6.758-2.636
	c 18.060-7.482, 30.598-16.176, 34.616-20.194l 120.236-120.238c 4.018-4.018, 12.712-16.554, 20.194-34.614c 0.956-2.306, 1.832-4.562, 2.636-6.756
	L 640,640 L 640,824.438 z M 832,64L 192,64 L 192,832 l 384,0 l0-256 l 256,0 L 832,64 z" data-tags="file, paper, page, new, empty, blank, document" />
<glyph unicode="&#xe025;" d="M 892.118,771.882l-120.234,120.236C 734.546,929.454, 660.8,960, 608,960L 160,960 C 107.2,960, 64,916.8, 64,864l0-832 c0-52.8, 43.2-96, 96-96l 704,0 
	c 52.8,0, 96,43.2, 96,96L 960,608 C 960,660.8, 929.454,734.546, 892.118,771.882z M 640,824.438c 2.196-0.804, 4.452-1.68, 6.758-2.636
	c 18.060-7.482, 30.598-16.176, 34.616-20.194l 120.236-120.238c 4.018-4.018, 12.712-16.554, 20.194-34.614c 0.956-2.306, 1.832-4.562, 2.636-6.756
	L 640,640 L 640,824.438 z M 832,64L 192,64 L 192,832 l 384,0 l0-256 l 256,0 L 832,64 zM 256,448L 768,448L 768,384L 256,384zM 256,320L 768,320L 768,256L 256,256zM 256,192L 768,192L 768,128L 256,128z" data-tags="file, list, paper, page, document" />
<glyph unicode="&#xe026;" d="M 903.432,760.57l-142.864,142.862C 729.456,934.544, 668,960, 624,960L 144,960 C 100,960, 64,924, 64,880l0-864 c0-44, 36-80, 80-80l 736,0 c 44,0, 80,36, 80,80
	L 960,624 C 960,668, 934.544,729.458, 903.432,760.57z M 858.178,715.314c 3.13-3.13, 6.25-6.974, 9.28-11.314L 704,704 L 704,867.456 
	c 4.34-3.030, 8.184-6.15, 11.314-9.28L 858.178,715.314z M 896,16c0-8.672-7.328-16-16-16L 144,0 c-8.672,0-16,7.328-16,16L 128,880 c0,8.672, 7.328,16, 16,16
	l 480,0 c 4.832,0, 10.254-0.61, 16-1.704L 640,640 l 254.296,0 c 1.094-5.746, 1.704-11.166, 1.704-16L 896,16 z" data-tags="file, paper, page, new, empty, blank, document" />
<glyph unicode="&#xe027;" d="M 832,704l-192,0 L 640,768 L 448,960L0,960 l0-768 l 384,0 l0-256 l 640,0 L 1024,512 L 832,704z M 832,613.49L 933.49,512L 832,512 L 832,613.49 z M 448,869.49L 549.49,768L 448,768 
	L 448,869.49 z M 64,896l 320,0 l0-192 l 192,0 l0-448 L 64,256 L 64,896 z M 960,0L 448,0 l0,192 l 192,0 L 640,640 l 128,0 l0-192 l 192,0 L 960,0 z" data-tags="copy, duplicate, files, pages, papers, documents" />
<glyph unicode="&#xe028;" d="M 864,832l-64,0 l0-64 l 32,0 l0-512 L 576,256 l0-256 L 192,0 L 192,768 l 32,0 L 224,832 L 160,832 c-17.602,0-32-14.4-32-32l0-832 c0-17.6, 14.398-32, 32-32l 504,0 l 232,232L 896,800 
	C 896,817.6, 881.6,832, 864,832z M 640,0l0,192 l 192,0 L 640,0zM 768,832l-128,0 L 640,896 c0,35.2-28.8,64-64,64l-128,0 c-35.204,0-64-28.8-64-64l0-64 l-128,0 l0-128 l 512,0 L 768,832 z M 576,832l-128,0 L 448,895.886 
	c 0.034,0.038, 0.072,0.078, 0.114,0.114l 127.768,0 c 0.042-0.036, 0.082-0.076, 0.118-0.114L 576,832 z" data-tags="copy, duplicate" />
<glyph unicode="&#xe029;" d="M 640,704L 640,960 L 192,960 L0,768l0-576 l 384,0 l0-256 l 640,0 L 1024,704 L 640,704 z M 192,869.49L 192,768 L 90.51,768 L 192,869.49z M 64,256L 64,704 l 192,0 L 256,896 l 320,0 l0-192 l-192-192l0-256 L 64,256 z
	 M 576,613.49L 576,512 l-101.49,0 L 576,613.49z M 960,0L 448,0 L 448,448 l 192,0 l0,192 l 320,0 L 960,0 z" data-tags="copy, duplicate, files, pages, papers, documents" />
<glyph unicode="&#xe02a;" d="M 704,832l-128,0 L 576,896 c0,35.2-28.8,64-64,64l-128,0 c-35.204,0-64-28.8-64-64l0-64 L 192,832 l0-128 l 512,0 L 704,832 z M 512,832l-128,0 L 384,895.886 
		c 0.034,0.038, 0.072,0.078, 0.114,0.114l 127.768,0 c 0.042-0.036, 0.082-0.076, 0.118-0.114L 512,832 zM 832,640L 832,800 c0,17.6-14.4,32-32,32l-64,0 l0-64 l 32,0 l0-128 L 384,640 l0-448 L 128,192 L 128,768 l 32,0 L 160,832 L 96,832 c-17.602,0-32-14.4-32-32l0-640 c0-17.6, 14.398-32, 32-32l 288,0 
		l0-192 l 448,0 l 192,192L 1024,640 L 832,640 z M 832,26.51L 832,128 l 101.49,0 L 832,26.51z M 960,192l-192,0 l0-192 L 448,0 L 448,576 l 512,0 L 960,192 z" data-tags="paste, clipboard" />
<glyph unicode="&#xe02b;" d="M 832,640L 832,800 c0,17.6-14.4,32-32,32L 576,832 L 576,896 c0,35.2-28.8,64-64,64l-128,0 c-35.204,0-64-28.8-64-64l0-64 L 96,832 c-17.602,0-32-14.4-32-32l0-640 
	c0-17.6, 14.398-32, 32-32l 288,0 l0-192 l 448,0 l 192,192L 1024,640 L 832,640 z M 384,895.886c 0.034,0.038, 0.072,0.078, 0.114,0.114l 127.768,0 
	c 0.042-0.036, 0.082-0.076, 0.118-0.114L 512,832 l-128,0 L 384,895.886 z M 192,704L 192,768 l 512,0 l0-64 L 192,704 z M 832,26.51L 832,128 l 101.49,0 L 832,26.51z M 960,192l-192,0 l0-192 
	L 448,0 L 448,576 l 512,0 L 960,192 z" data-tags="paste, clipboard" />
<glyph unicode="&#xe02c;" d="M 704,832l-128,0 L 576,896 c0,35.2-28.8,64-64,64l-128,0 c-35.204,0-64-28.8-64-64l0-64 L 192,832 l0-128 l 512,0 L 704,832 z M 512,832l-128,0 L 384,895.886 
		c 0.034,0.038, 0.072,0.078, 0.114,0.114l 127.768,0 c 0.042-0.036, 0.082-0.076, 0.118-0.114L 512,832 zM 832,640L 832,800 c0,17.6-14.4,32-32,32l-64,0 l0-64 l 32,0 l0-128 l-192,0 l-192-192l0-256 L 128,192 L 128,768 l 32,0 L 160,832 L 96,832 c-17.602,0-32-14.4-32-32l0-640 
		c0-17.6, 14.398-32, 32-32l 288,0 l0-192 l 640,0 L 1024,640 L 832,640 z M 576,549.49L 576,448 l-101.49,0 L 576,549.49z M 960,0L 448,0 L 448,384 l 192,0 l0,192 l 320,0 L 960,0 z" data-tags="paste, clipboard" />
<glyph unicode="&#xe02d;" d="M 1024,640L 512,896L0,640l 512-256L 1024,640z M 512,811.030L 854.058,640L 512,468.97L 169.942,640L 512,811.030zM 921.444,499.278 L 1024,448 L 512,192 L 0,448 L 102.556,499.278 L 512,294.556 ZM 921.444,307.278 L 1024,256 L 512,0 L 0,256 L 102.556,307.278 L 512,102.556 Z" data-tags="stack, layers" />
<glyph unicode="&#xe02e;" d="M 0,640 L 1024,640 L 960,0 L 64,0 L 0,640 Z M 928,768 L 960,704 L 64,704 L 128,832 L 480,832 L 512,768 L 928,768 Z" data-tags="folder, directory, category, browse" />
<glyph unicode="&#xe02f;" d="M 832,0L 1024,512L 192,512L0,0 zM 128,576 L 0,0 L 0,832 L 288,832 L 416,704 L 832,704 L 832,576 Z" data-tags="folder-open, directory, category, browse" />
<glyph unicode="&#xe030;" d="M 927.812,960L 639.25,960 c-52.906,0-126.796-30.606-164.204-68.014L 28.056,444.996c-37.408-37.408-37.408-98.624,0-136.032
	l 344.91-344.906c 37.408-37.41, 98.622-37.41, 136.030,0l 446.99,446.988C 993.394,448.456, 1024,522.348, 1024,575.25L 1024,863.812 
	C 1024,916.716, 980.714,960, 927.812,960z M 800,640c-53.020,0-96,42.98-96,96s 42.98,96, 96,96s 96-42.98, 96-96S 853.020,640, 800,640z" data-tags="tag, price" />
<glyph unicode="&#xe031;" d="M 992,896L 768,896 c-52.8,0-126.546-30.546-163.882-67.882L 227.882,451.882c-37.334-37.334-37.334-98.428,0-135.764l 280.236-280.234
	c 37.334-37.336, 98.428-37.336, 135.764,0l 376.234,376.234C 1057.454,449.454, 1088,523.2, 1088,576L 1088,800 C 1088,852.8, 1044.8,896, 992,896z M 864,576
	c-53.020,0-96,42.98-96,96s 42.98,96, 96,96s 96-42.98, 96-96S 917.020,576, 864,576zM 86.626,361.374 L 429.004,18.996 C 392.74-0.164 346.542,5.458 316.118,35.884 L 35.882,316.118 C -1.452,353.454 -1.452,414.548 35.882,451.882 L 412.118,828.118 C 449.454,865.454 523.2,896 576,896 L 86.626,406.628 C 74.182,394.182 74.182,373.82 86.626,361.374 Z" horiz-adv-x="1088" data-tags="tags, prices" />
<glyph unicode="&#xe032;" d="M0,832L 128,832L 128,192L0,192zM 192,832L 256,832L 256,192L 192,192zM 320,832L 384,832L 384,192L 320,192zM 512,832L 576,832L 576,192L 512,192zM 768,832L 832,832L 832,192L 768,192zM 960,832L 1024,832L 1024,192L 960,192zM 640,832L 672,832L 672,192L 640,192zM 448,832L 480,832L 480,192L 448,192zM 864,832L 896,832L 896,192L 864,192zM0,128L 64,128L 64,64L0,64zM 192,128L 256,128L 256,64L 192,64zM 320,128L 384,128L 384,64L 320,64zM 640,128L 704,128L 704,64L 640,64zM 960,128L 1024,128L 1024,64L 960,64zM 768,128L 896,128L 896,64L 768,64zM 448,128L 576,128L 576,64L 448,64z" data-tags="barcode, price" />
<glyph unicode="&#xe033;" d="M 320,896 L 64,896 L 64,640 L 320,640 L 320,896 Z M 384,960 L 384,960 L 384,576 L 0,576 L 0,960 L 384,960 ZM 128,832L 256,832L 256,704L 128,704zM 960,896 L 704,896 L 704,640 L 960,640 L 960,896 Z M 1024,960 L 1024,960 L 1024,576 L 640,576 L 640,960 L 1024,960 ZM 768,832L 896,832L 896,704L 768,704zM 320,256 L 64,256 L 64,0 L 320,0 L 320,256 Z M 384,320 L 384,320 L 384-64 L 0-64 L 0,320 L 384,320 ZM 128,192L 256,192L 256,64L 128,64zM 448,960L 512,960L 512,896L 448,896zM 512,896L 576,896L 576,832L 512,832zM 448,832L 512,832L 512,768L 448,768zM 512,768L 576,768L 576,704L 512,704zM 448,704L 512,704L 512,640L 448,640zM 512,640L 576,640L 576,576L 512,576zM 448,576L 512,576L 512,512L 448,512zM 448,448L 512,448L 512,384L 448,384zM 512,384L 576,384L 576,320L 512,320zM 448,320L 512,320L 512,256L 448,256zM 512,256L 576,256L 576,192L 512,192zM 448,192L 512,192L 512,128L 448,128zM 512,128L 576,128L 576,64L 512,64zM 448,64L 512,64L 512,0L 448,0zM 512,0L 576,0L 576-64L 512-64zM 960,448L 1024,448L 1024,384L 960,384zM 64,448L 128,448L 128,384L 64,384zM 128,512L 192,512L 192,448L 128,448zM0,512L 64,512L 64,448L0,448zM 256,512L 320,512L 320,448L 256,448zM 320,448L 384,448L 384,384L 320,384zM 384,512L 448,512L 448,448L 384,448zM 576,448L 640,448L 640,384L 576,384zM 640,512L 704,512L 704,448L 640,448zM 704,448L 768,448L 768,384L 704,384zM 768,512L 832,512L 832,448L 768,448zM 832,448L 896,448L 896,384L 832,384zM 896,512L 960,512L 960,448L 896,448zM 960,320L 1024,320L 1024,256L 960,256zM 576,320L 640,320L 640,256L 576,256zM 640,384L 704,384L 704,320L 640,320zM 704,320L 768,320L 768,256L 704,256zM 832,320L 896,320L 896,256L 832,256zM 896,384L 960,384L 960,320L 896,320zM 960,192L 1024,192L 1024,128L 960,128zM 576,192L 640,192L 640,128L 576,128zM 640,256L 704,256L 704,192L 640,192zM 768,256L 832,256L 832,192L 768,192zM 832,192L 896,192L 896,128L 832,128zM 896,256L 960,256L 960,192L 896,192zM 960,64L 1024,64L 1024,0L 960,0zM 640,128L 704,128L 704,64L 640,64zM 704,64L 768,64L 768,0L 704,0zM 768,128L 832,128L 832,64L 768,64zM 832,64L 896,64L 896,0L 832,0zM 640,0L 704,0L 704-64L 640-64zM 768,0L 832,0L 832-64L 768-64zM 896,0L 960,0L 960-64L 896-64z" data-tags="qrcode, price" />
<glyph unicode="&#xe034;" d="M 575.996,640L 703.994,512.002L 448,256.008L 320.002,384.006zM 1001.526,662.496l-73.516,73.516l-32.008-32.008c-16.378-16.38-39.010-26.51-64-26.51
		c-49.988,0-90.514,40.522-90.514,90.51c0,25.002, 10.14,47.638, 26.534,64.018l 31.988,31.986l-73.518,73.516
		c-29.968,29.968-79.008,29.968-108.976,0L 22.476,342.486c-29.966-29.968-29.966-79.010,0-108.976l 73.52-73.518l 31.962,31.964
		c 16.382,16.406, 39.030,26.552, 64.044,26.552c 49.988,0, 90.51-40.524, 90.51-90.51c0-25.006-10.14-47.64-26.534-64.022l-31.984-31.986
		l 73.516-73.518c 29.966-29.966, 79.008-29.966, 108.976,0l 595.040,595.040C 1031.49,583.488, 1031.49,632.528, 1001.526,662.496z
		 M 448.002,128.004l-256,256l 384,384l 256-256L 448.002,128.004z" data-tags="ticket, theater, cinema" />
<glyph unicode="&#xe035;" d="M 128,32A96,96 10980 1 0 320,32A96,96 10980 1 0 128,32zM 768,32A96,96 10980 1 0 960,32A96,96 10980 1 0 768,32zM 960,448L 960,832 L 128,832 C 128,902.692, 70.694,960,0,960l0-64 c 35.29,0, 64-28.71, 64-64l 48.074-412.054C 82.78,396.488, 64,360.446, 64,320
		c0-70.694, 57.308-128, 128-128l 768,0 l0,64 L 192,256 c-35.346,0-64,28.654-64,64c0,0.22, 0.014,0.436, 0.016,0.656L 960,448z" data-tags="cart, ecommerce, shopping, products, purchase, buy, store" />
<glyph unicode="&#xe036;" d="M 847.218,384c 35.2,0, 71.912,27.692, 81.582,61.538l 92.836,324.926C 1031.306,804.308, 1010.418,832, 975.218,832L 320,832 
	c0,70.692-57.308,128-128,128L0,960 l0-128 l 192,0 l0-544 c0-53.020, 42.98-96, 96-96l 608,0 c 35.346,0, 64,28.654, 64,64s-28.654,64-64,64L 320,320 l0,64 L 847.218,384 z
	 M 320,704l 578.806,0 l-54.858-192L 320,512 L 320,704 zM 384,16c0-44-36-80-80-80l-32,0 c-44,0-80,36-80,80l0,32 c0,44, 36,80, 80,80l 32,0 c 44,0, 80-36, 80-80L 384,16 zM 960,16c0-44-36-80-80-80l-32,0 c-44,0-80,36-80,80l0,32 c0,44, 36,80, 80,80l 32,0 c 44,0, 80-36, 80-80L 960,16 z" data-tags="cart, ecommerce, shopping, products, purchase, buy, store" />
<glyph unicode="&#xe037;" d="M 977.582,765.538c-33.984,9.708-69.41-9.97-79.12-43.956L 893.44,704L 296.498,704 l-8.992,71.938
		C 283.502,807.966, 256.276,832, 224,832L 64,832 C 28.654,832,0,803.346,0,768s 28.654-64, 64-64l 103.502,0 l 56.992-455.938
		C 228.498,216.036, 255.724,192, 288,192l 544,0 c 28.574,0, 53.688,18.944, 61.538,46.418l 128,448
		C 1031.248,720.404, 1011.568,755.828, 977.582,765.538z M 512,448l0,64 l 127.996,0 l0-64 L 512,448 z M 639.996,384l0-64 L 512,320 l0,64 L 639.996,384 z M 512,576l0,64 
		l 127.996,0 l0-64 L 512,576 z M 304.498,640L 448,640 l0-64 l-135.502,0 L 304.498,640z M 320.498,512L 448,512 l0-64 l-119.502,0 L 320.498,512z M 336.498,384L 448,384 l0-64 l-103.502,0 
		L 336.498,384z M 783.724,320l-79.728,0 l0,64 l 98.014,0 L 783.724,320z M 820.296,448l-116.3,0 l0,64 l 134.586,0 L 820.296,448z M 856.868,576l-152.872,0 
		l0,64 l 171.158,0 L 856.868,576zM 256,32A96,96 2700 1 0 448,32A96,96 2700 1 0 256,32zM 640,32A96,96 2700 1 0 832,32A96,96 2700 1 0 640,32z" data-tags="cart, ecommerce, shopping, products, purchase, buy, store" />
<glyph unicode="&#xe038;" d="M 480,896C 214.904,896,0,681.096,0,416c0-265.098, 214.904-480, 480-480c 265.098,0, 480,214.902, 480,480
		C 960,681.096, 745.098,896, 480,896z M 480,32c-212.078,0-384,171.922-384,384c0,212.078, 171.922,384, 384,384
		c 212.078,0, 384-171.922, 384-384C 864,203.922, 692.078,32, 480,32zM 512,448l0,128 l 128,0 l0,64 l-128,0 l0,64 l-64,0 l0-64 l-128,0 l0-256 l 128,0 l0-128 l-128,0 l0-64 l 128,0 l0-64 l 64,0 l0,64 l 128,0 l 0.002,0 L 640,448L 512,448 z M 448,448l-64,0 l0,128 l 64,0 L 448,448 z
	 M 576.002,256L 512,256 l0,128 l 64.002,0 L 576.002,256 z" data-tags="coin, money, cash" />
<glyph unicode="&#xe039;" d="M 928,832L 96,832 C 43.2,832,0,788.8,0,736l0-576 c0-52.8, 43.2-96, 96-96l 832,0 c 52.8,0, 96,43.2, 96,96L 1024,736 C 1024,788.8, 980.8,832, 928,832z M 96,768
		l 832,0 c 17.346,0, 32-14.654, 32-32l0-96 L 64,640 l0,96 C 64,753.346, 78.654,768, 96,768z M 928,128L 96,128 c-17.346,0-32,14.654-32,32L 64,448 l 896,0 l0-288 
		C 960,142.654, 945.346,128, 928,128zM 128,320L 192,320L 192,192L 128,192zM 256,320L 320,320L 320,192L 256,192zM 384,320L 448,320L 448,192L 384,192z" data-tags="credit, card, purchase, payment, ecommerce" />
<glyph unicode="&#xe03a;" d="M 384,896L 64,896 C 28.8,896,0,867.2,0,832l0-320 c0-35.2, 28.796-64, 64-64l 320,0 c 35.2,0, 64,28.8, 64,64L 448,832 C 448,867.2, 419.2,896, 384,896z
	 M 384,640L 64,640 l0,64 l 320,0 L 384,640 z M 896,896L 576,896 c-35.204,0-64-28.8-64-64l0-832 c0-35.2, 28.796-64, 64-64l 320,0 c 35.2,0, 64,28.8, 64,64L 960,832 
	C 960,867.2, 931.2,896, 896,896z M 896,320L 576,320 l0,64 l 320,0 L 896,320 z M 896,512L 576,512 l0,64 l 320,0 L 896,512 z M 384,384L 64,384 c-35.2,0-64-28.8-64-64l0-320 
	c0-35.2, 28.796-64, 64-64l 320,0 c 35.2,0, 64,28.8, 64,64L 448,320 C 448,355.2, 419.2,384, 384,384z M 384,128l-128,0 l0-128 L 192,0 l0,128 L 64,128 l0,64 l 128,0 l0,128 l 64,0 l0-128 l 128,0 
	L 384,128 z" data-tags="calculate, sum, calculator, compute, math, arithmetic" />
<glyph unicode="&#xe03b;" d="M 512,960C 229.23,960,0,730.77,0,448s 229.23-512, 512-512s 512,229.23, 512,512S 794.77,960, 512,960z M 320,448
	c0,106.040, 85.96,192, 192,192s 192-85.96, 192-192s-85.96-192-192-192S 320,341.96, 320,448z M 925.98,276.524L 925.98,276.524l-177.42,73.49
	C 761.078,380.198, 768,413.29, 768,448s-6.922,67.802-19.44,97.986l 122.126,50.586l 55.294,22.904C 947.888,566.654, 960,508.746, 960,448
	C 960,387.254, 947.886,329.346, 925.98,276.524L 925.98,276.524z M 683.478,861.98L 683.478,861.98L 683.478,861.98l-73.49-177.42
	C 579.804,697.078, 546.712,704, 512,704s-67.802-6.922-97.986-19.44l-34.46,83.198l-39.030,94.224C 393.346,883.886, 451.256,896, 512,896
	C 572.746,896, 630.654,883.886, 683.478,861.98z M 98.020,619.476l 94.224-39.030l 83.198-34.46C 262.924,515.802, 256,482.71, 256,448
	s 6.922-67.802, 19.44-97.986l-177.42-73.49C 76.114,329.346, 64,387.254, 64,448C 64,508.746, 76.114,566.654, 98.020,619.476z
	 M 340.524,34.020l 22.904,55.294l 50.586,122.126C 444.198,198.922, 477.29,192, 512,192s 67.802,6.922, 97.986,19.44l 73.49-177.42l0,0l0,0
	C 630.654,12.116, 572.746,0, 512,0C 451.256,0, 393.346,12.114, 340.524,34.020z" data-tags="support, help, life, lifebuoy" />
<glyph unicode="&#xe03c;" d="M 704,320c-64-64-64-128-128-128s-128,64-192,128s-128,128-128,192s 64,64, 128,128S 256,896, 192,896S0,704,0,704c0-128, 131.5-387.5, 256-512
	s 384-256, 512-256c0,0, 192,128, 192,192S 768,384, 704,320z" data-tags="phone, contact, telephone, support, call" />
<glyph unicode="&#xe03d;" d="M 1017.378,384.006 C 1025.382,328.524 1030.594,252.614 1005.714,223.56 C 964.572,175.516 704.002,175.516 704.002,271.602 C 704.002,320 746.858,351.736 705.714,399.78 C 665.242,447.042 592.688,447.81 512,447.822 C 431.314,447.81 358.758,447.042 318.286,399.78 C 277.144,351.734 320,320 320,271.602 C 320,175.516 59.43,175.516 18.286,223.558 C -6.592,252.612 -1.382,328.522 6.624,384.004 C 12.784,421.042 28.348,461 78.172,511.998 C 78.172,512 78.174,512 78.174,512.002 C 152.912,581.744 266.020,638.74 508,639.97 L 508,640 C 509.344,640 510.664,639.99 512,639.986 C 513.338,639.99 514.656,640 516,640 L 516,639.972 C 757.98,638.742 871.088,581.746 945.826,512.004 C 945.828,512.002 945.828,512 945.828,512 C 995.652,461.004 1011.218,421.046 1017.378,384.006 Z" data-tags="phone-hang-up, contact, telephone, support, call" />
<glyph unicode="&#xe03e;" d="M 960,704c 35.346,0, 64,28.654, 64,64L 1024,896 l-128,0 L 896,960 L 64,960 C 28.8,960,0,931.202,0,896l0-896 c0-35.2, 28.796-64, 64-64l 832,0 L 896,192 l 64,0 
	c 35.346,0, 64,28.654, 64,64l0,128 l-128,0 l0,64 l 64,0 c 35.346,0, 64,28.654, 64,64l0,128 l-128,0 l0,64 L 960,704 z M 576,703.67
	c 70.51,0, 127.67-57.16, 127.67-127.67s-57.16-127.67-127.67-127.67c-70.51,0-127.67,57.16-127.67,127.67
	S 505.49,703.67, 576,703.67z M 256,0L 192,0 L 192,896 l 64,0 L 256,0 z M 768,192L 384,192 l0,64 c0,70.694, 57.308,128, 128,128l0,0 l 128,0 c 70.696,0, 128-57.306, 128-128
	L 768,192 z" data-tags="address-book, book, contacts" />
<glyph unicode="&#xe03f;" d="M 898.36,896L 128,896 l0-128 L 34.36,768 C 16.76,768,0,755.472,0,737.872l0-64 C0,656.272, 16.76,640, 34.36,640L 128,640 l0-64 L 34.36,576 
	C 16.76,576,0,563.472,0,545.872l0-64 C0,464.272, 16.76,448, 34.36,448L 128,448 l0-64 L 34.36,384 C 16.76,384,0,371.472,0,353.872l0-64 
	C0,272.274, 16.76,256, 34.36,256L 128,256 l0-64 L 34.36,192 C 16.76,192,0,179.472,0,161.872l0-64 C0,80.272, 16.76,64, 34.36,64L 128,64 l0-128 l 770.36,0 
	c 35.348,0, 61.64,30.526, 61.64,65.872l0,832 C 960,869.218, 933.708,896, 898.36,896z M 320,0L 192,0 l0,64 l 34.36,0 c 17.6,0, 29.64,16.272, 29.64,33.872
	l0,64 c0,17.602-12.042,30.128-29.64,30.128L 192,192 l0,64 l 34.36,0 c 17.6,0, 29.64,16.272, 29.64,33.872l0,64 c0,17.602-12.042,30.128-29.64,30.128L 192,384 l0,64 
	l 34.36,0 c 17.6,0, 29.64,16.272, 29.64,33.872l0,64 c0,17.602-12.042,30.128-29.64,30.128L 192,576 l0,64 l 34.36,0 c 17.6,0, 29.64,16.272, 29.64,33.872l0,64 
	C 256,755.474, 243.96,768, 226.36,768L 192,768 L 192,832 l 128,0 L 320,0 z" data-tags="notebook, notes, book, journal" />
<glyph unicode="&#xe040;" d="M 928,832L 96,832 C 43.2,832,0,788.8,0,736l0-640 c0-52.8, 43.2-96, 96-96l 832,0 c 52.8,0, 96,43.2, 96,96L 1024,736 C 1024,788.8, 980.8,832, 928,832z
	 M 398.74,409.628L 128,198.736L 128,700.378 L 398.74,409.628z M 176.38,704L 847.62,704 L 512,452L 176.38,704z M 409.288,398.302L 512,288l 102.71,110.302
	L 825.264,128L 198.736,128 L 409.288,398.302z M 625.26,409.628L 896,700.378l0-501.642 L 625.26,409.628z" data-tags="envelop, mail, email, contact, letter" />
<glyph unicode="&#xe041;" d="M 544,960l-96-96l 96-96L 320,512L 96,512 l 176-176L0-24.616L0-64 l 39.384,0 L 400,208l 176-176L 576,256 l 256,224l 96-96l 96,96L 544,960z M 448,416l-64,64
	l 224,224l 64-64L 448,416z" data-tags="pushpin, pin" />
<glyph unicode="&#xe042;" d="M 512,960C 335.268,960, 192,816.732, 192,640c0-320, 320-704, 320-704s 320,384, 320,704C 832,816.732, 688.73,960, 512,960z M 512,448
	c-106.040,0-192,85.96-192,192s 85.96,192, 192,192s 192-85.96, 192-192S 618.040,448, 512,448z" data-tags="location, map, marker, pin" />
<glyph unicode="&#xe043;" d="M 512,960C 335.268,960, 192,816.732, 192,640c0-320, 320-704, 320-704s 320,384, 320,704C 832,816.732, 688.73,960, 512,960z M 512,444
	c-108.248,0-196,87.752-196,196s 87.752,196, 196,196s 196-87.752, 196-196S 620.248,444, 512,444zM 388,640A124,124 1260 1 0 636,640A124,124 1260 1 0 388,640z" data-tags="location, map, marker, pin" />
<glyph unicode="&#xe044;" d="M 512,960C 229.23,960,0,730.77,0,448s 229.23-512, 512-512s 512,229.23, 512,512S 794.77,960, 512,960z M 512,32
	c-229.75,0-416,186.25-416,416S 282.25,864, 512,864s 416-186.25, 416-416S 741.75,32, 512,32zM 608,544l-288,160l-64,0 l0-64 l 160-288l 288-160l 64,0 l0,64 L 608,544z M 512,384c-35.346,0-64,28.654-64,64c0,35.346, 28.654,64, 64,64
	c 35.346,0, 64-28.654, 64-64C 576,412.654, 547.346,384, 512,384z" data-tags="compass, direction, map, locate" />
<glyph unicode="&#xe045;" d="M0,768L 320,896L 320,128L0,0 zM 704,768 L 704,0 L 384,106.666 L 384,874.666 ZM 1024,896 L 1024,128 L 768,25.6 L 768,793.6 Z" data-tags="map, location, guide" />
<glyph unicode="&#xe046;" d="M 672,768L 352,896L0,768l0-768 l 352,128l 320-128l 352,128L 1024,896 L 672,768z M 384,814.27l 256-102.4l0-630.138 l-256,102.398L 384,814.27 z M 64,723.172
	l 256,93.090l0-631.8 L 64,91.374L 64,723.172 z M 960,172.828l-256-93.092l0,631.8 l 256,93.090L 960,172.828 z" data-tags="map, location, guide" />
<glyph unicode="&#xe047;" d="M 576,896 C 823.424,896 1024,695.424 1024,448 C 1024,200.576 823.424,0 576,0 L 576,96 C 670.024,96 758.418,132.614 824.902,199.098 C 891.386,265.582 928,353.976 928,448 C 928,542.022 891.386,630.418 824.902,696.902 C 758.418,763.386 670.024,800 576,800 C 481.978,800 393.582,763.386 327.098,696.902 C 275.958,645.764 242.516,581.656 229.792,512 L 416,512 L 192,256 L -32,512 L 132.57,512 C 163.63,729.102 350.308,896 576,896 ZM 768,512 L 768,384 L 512,384 L 512,704 L 640,704 L 640,512 Z" data-tags="history, time, past, archive" />
<glyph unicode="&#xe048;" d="M 658.744,210.744L 448,421.49L 448,704L 576,704L 576,474.51L 749.256,301.256 	zM 512,960C 229.23,960,0,730.77,0,448s 229.23-512, 512-512s 512,229.23, 512,512S 794.77,960, 512,960z M 512,64
		c-212.078,0-384,171.922-384,384c0,212.078, 171.922,384, 384,384c 212.078,0, 384-171.922, 384-384C 896,235.922, 724.078,64, 512,64z" data-tags="clock, time, schedule" />
<glyph unicode="&#xe049;" d="M 512,960C 229.23,960,0,730.77,0,448s 229.23-512, 512-512s 512,229.23, 512,512S 794.77,960, 512,960z M 658.744,210.744L 448,421.49
		L 448,704 l 128,0 l0-229.49 l 173.256-173.254L 658.744,210.744z" data-tags="clock, time, schedule" />
<glyph unicode="&#xe04a;" d="M 576,410.51 L 685.254,301.254 L 594.746,210.746 L 448,357.49 L 448,576 L 576,576 ZM 832,896 C 938.040,896 1024,810.040 1024,704 C 1024,639.016 991.71,581.582 942.308,546.842 C 895.718,669.886 797.886,767.718 674.842,814.308 C 709.582,863.71 767.018,896 832,896 ZM 349.158,814.308 C 226.114,767.718 128.282,669.886 81.692,546.842 C 32.29,581.582 0,639.016 0,704 C 0,810.040 85.96,896 192,896 C 256.984,896 314.418,863.71 349.158,814.308 ZM 512,768C 299.922,768, 128,596.078, 128,384c0-92.674, 32.832-177.678, 87.494-244.020L 192-64l 64,0 l 64,115.38l-0.008,0.008
		C 376.476,18.71, 442.050,0, 512,0c 69.948,0, 135.52,18.71, 192.004,51.386L 704,51.382L 768-64l 64,0 l-23.502,203.968
		C 863.166,206.314, 896,291.32, 896,384C 896,596.078, 724.078,768, 512,768z M 512,128c-141.384,0-256,114.616-256,256s 114.616,256, 256,256
		s 256-114.616, 256-256S 653.384,128, 512,128z" data-tags="alarm, clock, time" />
<glyph unicode="&#xe04b;" d="M 512,832C 264.576,832, 64,631.424, 64,384s 200.576-448, 448-448s 448,200.576, 448,448S 759.424,832, 512,832z M 512,24
	c-198.824,0-360,161.178-360,360c0,198.824, 161.176,360, 360,360c 198.822,0, 360-161.176, 360-360C 872,185.178, 710.822,24, 512,24z
	 M 934.784,672.826C 950.826,700.878, 960,733.368, 960,768c0,106.040-85.96,192-192,192c-61.818,0-116.802-29.222-151.92-74.596
	C 747.964,858.168, 861.286,780.206, 934.784,672.826z M 407.92,885.404C 372.804,930.778, 317.818,960, 256,960C 149.96,960, 64,874.040, 64,768
	c0-34.632, 9.174-67.122, 25.216-95.174C 162.716,780.206, 276.038,858.168, 407.92,885.404z M 448,640l 64,0 l0-320 l-64,0 L 448,640 z M 512,384l 192,0 l0-64 l-192,0 
	L 512,384 z" data-tags="alarm, clock, time" />
<glyph unicode="&#xe04c;" d="M 1025.5,160c0,288-256,224-256,448c0,18.56-1.788,34.42-5.048,47.928c-16.83,113.018-92.156,203.72-189.772,231.36
	c 0.866,3.948, 1.32,8.032, 1.32,12.21C 576,932.776, 547.2,960, 512,960c-35.2,0-64-27.224-64-60.5c0-4.18, 0.456-8.264, 1.32-12.21
	c-109.47-30.998-190.914-141.298-193.254-273.442c-0.040-1.92-0.066-3.864-0.066-5.846C 256,384,0,448,0,160
	c0-76.226, 170.59-139.996, 398.97-156.080C 420.494-36.484, 463.026-64, 512-64s 91.508,27.516, 113.030,67.92
	C 853.41,20.004, 1024,83.774, 1024,160c0,0.228-0.026,0.456-0.028,0.682L 1025.5,160z M 826.246,105.904
	c-54.23-14.47-118.158-24.876-186.768-30.648C 633.774,140.674, 578.896,192, 512,192s-121.774-51.326-127.478-116.744
	c-68.608,5.772-132.538,16.178-186.768,30.648C 123.124,125.818, 87.444,148.094, 74.386,160c 13.058,11.906, 48.738,34.182, 123.368,54.096
	C 284.526,237.248, 396.126,250, 512,250s 227.474-12.752, 314.246-35.904c 74.63-19.914, 110.31-42.19, 123.368-54.096
	C 936.556,148.094, 900.876,125.818, 826.246,105.904z" data-tags="bell, alarm, notification" />
<glyph unicode="&#xe04d;" d="M 512.002,766.788L 512.002,832 l 128,0 L 640.002,896 c0,35.346-28.654,64-64.002,64l-191.998,0 c-35.346,0-64-28.654-64-64l0-64 l 128,0 l0-65.212 
	c-214.798-16.338-384-195.802-384-414.788c0-229.75, 186.25-416, 416-416c 229.75,0, 416,186.25, 416,416
	C 896.002,570.984, 726.8,750.448, 512.002,766.788z M 706.276,125.726C 645.834,65.286, 565.478,32, 480.002,32
	s-165.834,33.286-226.274,93.726C 193.288,186.166, 160.002,266.526, 160.002,352s 33.286,165.834, 93.726,226.274
	c 58.040,58.038, 134.448,91.018, 216.114,93.548l-21.678-314.020C 446.304,331.512, 460.628,320, 480,320
	c 19.372,0, 33.698,11.512, 31.836,37.802L 490.16,671.824c 81.666-2.532, 158.076-35.512, 216.116-93.55
	c 60.44-60.44, 93.726-140.8, 93.726-226.274S 766.716,186.166, 706.276,125.726z" data-tags="stopwatch, time, speed, meter, chronometer" />
<glyph unicode="&#xe04e;" d="M 320,576L 448,576L 448,448L 320,448zM 512,576L 640,576L 640,448L 512,448zM 704,576L 832,576L 832,448L 704,448zM 128,192L 256,192L 256,64L 128,64zM 320,192L 448,192L 448,64L 320,64zM 512,192L 640,192L 640,64L 512,64zM 320,384L 448,384L 448,256L 320,256zM 512,384L 640,384L 640,256L 512,256zM 704,384L 832,384L 832,256L 704,256zM 128,384L 256,384L 256,256L 128,256zM 832,960l0-64 l-128,0 L 704,960 L 256,960 l0-64 L 128,896 L 128,960 L0,960 l0-1024 l 960,0 L 960,960 L 832,960 z M 896,0L 64,0 L 64,704 l 832,0 L 896,0 z" data-tags="calendar, schedule, date, time, day" />
<glyph unicode="&#xe04f;" d="M 896,832l-96,0 l0-32 c0-35.29-28.71-64-64-64s-64,28.71-64,64L 672,832 L 352,832 l0-32 c0-35.29-28.71-64-64-64s-64,28.71-64,64L 224,832 L 128,832 
		c-35.2,0-64-28.8-64-64l0-704 c0-35.2, 28.8-64, 64-64l 768,0 c 35.2,0, 64,28.8, 64,64L 960,768 C 960,803.2, 931.2,832, 896,832z M 896,64.116
		c-0.034-0.040-0.076-0.082-0.116-0.116L 128.114,64 c-0.040,0.034-0.082,0.076-0.114,0.116L 128,640 l 768,0 L 896,64.116 zM 288,768c 17.672,0, 32,14.328, 32,32L 320,928 c0,17.672-14.328,32-32,32s-32-14.328-32-32l0-128 C 256,782.328, 270.328,768, 288,768zM 736,768c 17.672,0, 32,14.328, 32,32L 768,928 c0,17.672-14.328,32-32,32s-32-14.328-32-32l0-128 C 704,782.328, 718.328,768, 736,768zM 576,576L 256,576L 256,512L 512,512L 512,384L 256,384L 256,320L 512,320L 512,192L 256,192L 256,128L 576,128 	zM 704,128L 768,128L 768,576L 640,576L 640,512L 704,512 	zM 872-24L 152-24 c-35.2,0-64,20.8-64,56l0-32 c0-35.2, 28.8-64, 64-64l 720,0 c 35.2,0, 64,28.8, 64,64l0,32 C 936-3.2, 907.2-24, 872-24z" data-tags="calendar, schedule, date, time, day" />
<glyph unicode="&#xe050;" d="M 256,896L 768,896L 768,768L 256,768zM 960,704L 64,704 C 28.8,704,0,675.2,0,640l0-320 c0-35.2, 28.796-64, 64-64l 192,0 l0-256 l 512,0 L 768,256 l 192,0 c 35.2,0, 64,28.8, 64,64L 1024,640 
		C 1024,675.2, 995.2,704, 960,704z M 704,64L 320,64 L 320,384 l 384,0 L 704,64 z M 974.4,608c0-25.626-20.774-46.4-46.398-46.4
		c-25.626,0-46.402,20.774-46.402,46.4s 20.776,46.4, 46.402,46.4C 953.628,654.4, 974.4,633.626, 974.4,608z" data-tags="print, printer" />
<glyph unicode="&#xe051;" d="M 1088,832L 64,832 C 28.8,832,0,803.2,0,768l0-640 c0-35.2, 28.8-64, 64-64l 1024,0 c 35.2,0, 64,28.8, 64,64L 1152,768 C 1152,803.2, 1123.2,832, 1088,832z M 640,704
	l 128,0 l0-128 l-128,0 L 640,704 z M 832,512l0-128 l-128,0 l0,128 L 832,512 z M 448,704l 128,0 l0-128 l-128,0 L 448,704 z M 640,512l0-128 l-128,0 l0,128 L 640,512 z M 256,704l 128,0 l0-128 l-128,0 L 256,704 z M 448,512l0-128 
	l-128,0 l0,128 L 448,512 z M 128,704l 64,0 l0-128 L 128,576 L 128,704 z M 128,512l 128,0 l0-128 L 128,384 L 128,512 z M 192,192L 128,192 l0,128 l 64,0 L 192,192 z M 768,192L 256,192 l0,128 l 512,0 L 768,192 z M 1024,192l-192,0 l0,128 l 192,0 
	L 1024,192 z M 1024,384l-128,0 l0,128 l 128,0 L 1024,384 z M 1024,576l-192,0 l0,128 l 192,0 L 1024,576 z" horiz-adv-x="1152" data-tags="keyboard, type, typing" />
<glyph unicode="&#xe052;" d="M 1024,128L 1024,896 L0,896 l0-768 l 448,0 l0-64 l-192,0 l0-64 l 512,0 l0,64 l-192,0 l0,64 L 1024,128 z M 128,768l 768,0 l0-512 L 128,256 L 128,768 z" data-tags="screen, monitor, computer, pc, desktop" />
<glyph unicode="&#xe053;" d="M 896,256L 896,768 c0,35.2-28.8,64-64,64L 192,832 c-35.2,0-64-28.8-64-64l0-512 L0,256 l0-192 l 1024,0 l0,192 L 896,256 z M 640,128L 384,128 l0,64 l 256,0 L 640,128 z M 832,256L 192,256 
	L 192,767.886 c 0.034,0.040, 0.076,0.082, 0.114,0.114l 639.77,0 c 0.040-0.034, 0.082-0.076, 0.116-0.116L 832,256 z" data-tags="laptop, pc, computer" />
<glyph unicode="&#xe054;" d="M 736,960L 288,960 c-52.8,0-96-43.2-96-96l0-832 c0-52.8, 43.2-96, 96-96l 448,0 c 52.8,0, 96,43.2, 96,96L 832,864 C 832,916.8, 788.8,960, 736,960z M 384,912
	l 256,0 l0-32 L 384,880 L 384,912 z M 512,0c-35.346,0-64,28.654-64,64s 28.654,64, 64,64s 64-28.654, 64-64S 547.346,0, 512,0z M 768,192L 256,192 L 256,832 l 512,0 L 768,192 
	z" data-tags="mobile, phone, handheld" />
<glyph unicode="&#xe055;" d="M 768,960L 192,960 C 156.8,960, 128,931.202, 128,896l0-896 c0-35.2, 28.798-64, 64-64l 576,0 c 35.2,0, 64,28.8, 64,64L 832,896 C 832,931.202, 803.2,960, 768,960z
	 M 480-17.782c-27.492,0-49.782,22.29-49.782,49.782s 22.29,49.782, 49.782,49.782s 49.782-22.29, 49.782-49.782
	S 507.492-17.782, 480-17.782z M 768,128L 192,128 L 192,832 l 576,0 L 768,128 z" data-tags="mobile, phone, handheld" />
<glyph unicode="&#xe056;" d="M 800,960L 160,960 C 107.2,960, 64,916.8, 64,864l0-832 c0-52.8, 43.2-96, 96-96l 640,0 c 52.8,0, 96,43.2, 96,96L 896,864 C 896,916.8, 852.8,960, 800,960z M 480-32
	c-17.672,0-32,14.326-32,32s 14.328,32, 32,32s 32-14.326, 32-32S 497.672-32, 480-32z M 768,64L 192,64 L 192,832 l 576,0 L 768,64 z" data-tags="tablet, mobile" />
<glyph unicode="&#xe057;" d="M 981.188,671.892c-88.808,12.768-183.382,22.016-282.076,27.22L 864,864l-64,64L 575.442,703.444
	C 554.436,703.812, 533.286,704, 512,704l0,0L 256,960L 192,896l 194.196-194.196c-120.922-4.242-236.338-14.524-343.386-29.912
	C 15.278,564.166,0,445.14,0,320s 15.278-244.166, 42.804-351.89C 186.446-52.542, 345.144-64, 512-64
	c 166.856,0, 325.55,11.458, 469.188,32.11C 1008.722,75.834, 1024,194.86, 1024,320S 1008.722,564.166, 981.188,671.892z M 863.892,85.406
	C 756.162,71.64, 637.142,64, 512,64c-125.142,0-244.166,7.64-351.892,21.406C 139.46,157.222, 128,236.572, 128,320
	c0,83.43, 11.458,162.78, 32.108,234.596C 267.834,568.362, 386.858,576, 512,576c 125.136,0, 244.162-7.638, 351.886-21.404
	C 884.542,482.78, 896,403.43, 896,320C 896,236.572, 884.542,157.222, 863.892,85.406z" data-tags="tv, television, show" />
<glyph unicode="&#xe058;" d="M 704,960L 320,960 L 128,832l0-256 l 768,0 L 896,832 L 704,960z M 640,640l-64,0 l0,42.666 C 576,694.4, 566.4,704, 554.666,704l-85.332,0 
		c-11.732,0-21.334-9.6-21.334-21.334L 448,640 l-64,0 l0,106.666 C 384,758.4, 393.602,768, 405.334,768l 213.33,0 c 11.734,0, 21.336-9.6, 21.336-21.334
		L 640,640 zM 128,255.998l 768,0 L 896,512 L 128,512 L 128,255.998 z M 384,426.668c0,11.734, 9.602,21.332, 21.334,21.332l 213.33,0 
		c 11.734,0, 21.336-9.598, 21.336-21.332L 640,320 l-64,0 l0,42.668 c0,11.734-9.6,21.332-21.334,21.332l-85.332,0 
		c-11.732,0-21.334-9.598-21.334-21.332L 448,320 l-64,0 L 384,426.668 zM 128-64l 768,0 L 896,191.998 L 128,191.998 L 128-64 z M 384,106.668c0,11.734, 9.602,21.332, 21.334,21.332l 213.33,0 c 11.734,0, 21.336-9.598, 21.336-21.332
		L 640,0 l-64,0 l0,42.668 c0,11.734-9.6,21.332-21.334,21.332l-85.332,0 c-11.732,0-21.334-9.598-21.334-21.332L 448,0 l-64,0 L 384,106.668 z" data-tags="cabinet, storage, drawer, archive, office" />
<glyph unicode="&#xe059;" d="M 704,768L 320,768 L0,384l0-160 l0-96 c0-35.346, 28.654-64, 64-64l 896,0 c 35.348,0, 64,28.654, 64,64l0,96 l0,160 L 704,768z M 768,384l-128-128L 384,256 
	l-128,128L 83.31,384 l 266.666,320l 324.048,0 l 266.666-320L 768,384 z" data-tags="drawer, inbox, box, archive, storage, category" />
<glyph unicode="&#xe05a;" d="M 704,768L 320,768 L0,384l0-256 c0-35.346, 28.654-64, 64-64l 896,0 c 35.348,0, 64,28.654, 64,64L 1024,384 L 704,768z M 640,256L 384,256 l-64,64l 384,0 
		L 640,256z M 83.31,384l 266.666,320l 324.048,0 l 266.666-320L 83.31,384 zM 284.964,576L 739.036,576L 685.702,640L 338.296,640 	zM 178.298,448L 845.704,448L 792.37,512L 231.63,512 	z" data-tags="drawer, inbox, box, archive, storage, category" />
<glyph unicode="&#xe05b;" d="M 898.496,960 L 965.74,388.44 L 890.26,379.56 L 830.208,890 L 193.792,890 L 133.74,379.56 L 58.26,388.44 L 125.502,960 ZM 256,832L 768,832L 768,768L 256,768zM 256,704L 768,704L 768,640L 256,640zM 256,576L 768,576L 768,512L 256,512zM 256,448L 768,448L 768,384L 256,384zM 992,320L 32,320 c-17.6,0-27.446-13.66-21.88-30.358L 117.88-33.642C 123.446-50.34, 142.4-64, 160-64l 704,0 
	c 17.6,0, 36.552,13.66, 42.12,30.358l 107.762,323.286C 1019.448,306.34, 1009.6,320, 992,320z M 640,192L 384,192 l0,64 l 256,0 L 640,192 z" data-tags="drawer, inbox, box, archive, storage, category" />
<glyph unicode="&#xe05c;" d="M 832,896L 192,896 L0,704l0-672 c0-17.674, 14.326-32, 32-32l 960,0 c 17.672,0, 32,14.326, 32,32L 1024,704 L 832,896z M 512,128L 192,384l 192,0 l0,192 l 256,0 l0-192 l 192,0 
	L 512,128z M 154.51,768l 64,64l 586.978,0 l 64-64L 154.51,768 z" data-tags="box-add, storage, inbox, archive, download" />
<glyph unicode="&#xe05d;" d="M 832,896L 192,896 L0,704l0-672 c0-17.674, 14.326-32, 32-32l 960,0 c 17.672,0, 32,14.326, 32,32L 1024,704 L 832,896z M 640,320l0-192 L 384,128 l0,192 L 192,320 l 320,256
	l 320-256L 640,320 z M 154.51,768l 64,64l 586.976,0 l 64-64L 154.51,768 z" data-tags="box-remove, storage, inbox, archive, upload" />
<glyph unicode="&#xe05e;" d="M 512,384L 768,640L 576,640L 576,896L 448,896L 448,640L 256,640 	zM 744.726,488.728L 672.986,416.986L 933.066,320L 512,162.982L 90.934,320L 351.014,416.986L 279.272,488.728L0,384L0,128L 512-64L 1024,128L 1024,384 	z" data-tags="download, store, save, arrow" />
<glyph unicode="&#xe05f;" d="M 448,384L 576,384L 576,640L 768,640L 512,896L 256,640L 448,640 	zM 640,528L 640,429.288L 933.066,320L 512,162.982L 90.934,320L 384,429.288L 384,528L0,384L0,128L 512-64L 1024,128L 1024,384 	z" data-tags="upload, load, arrow" />
<glyph unicode="&#xe060;" d="M 896,960L0,960 l0-1024 l 1024,0 L 1024,832 L 896,960z M 512,832l 128,0 l0-256 l-128,0 L 512,832 z M 896,64L 128,64 L 128,832 l 64,0 l0-320 l 576,0 L 768,832 l 74.978,0 L 896,778.982L 896,64 z" data-tags="disk, save, floppy" />
<glyph unicode="&#xe061;" d="M 192,64l 640,0 c 106.038,0, 192,85.96, 192,192L0,256 C0,149.96, 85.962,64, 192,64z M 832,192l 64,0 l0-64 l-64,0 L 832,192 zM 960,832L 64,832L0,320L 1024,320 	z" data-tags="storage, save, hdd, hard disk, drive" />
<glyph unicode="&#xe062;" d="M 512,896c-141.384,0-269.376-57.32-362.032-149.978L0,896l0-384 l 384,0 l-143.532,143.522C 309.964,725.014, 405.96,768, 512,768
	c 212.068,0, 384-171.924, 384-384c0-114.696-50.292-217.636-130.018-288l 84.666-96C 956.95,93.816, 1024,231.076, 1024,384
	C 1024,666.77, 794.77,896, 512,896z" data-tags="undo, arrow, left" />
<glyph unicode="&#xe063;" d="M0,384c0-152.924, 67.048-290.184, 173.35-384l 84.666,96C 178.29,166.364, 128,269.304, 128,384c0,212.076, 171.93,384, 384,384
	c 106.042,0, 202.038-42.986, 271.53-112.478L 640,512l 384,0 L 1024,896 l-149.97-149.978C 781.376,838.68, 653.386,896, 512,896
	C 229.23,896,0,666.77,0,384z" data-tags="redo, arrow, right" />
<glyph unicode="&#xe064;" d="M0,576L 1024,576L 1024,960 		zM 1024,0L 1024,384L0,384 		z" data-tags="flip, mirror, vertical" />
<glyph unicode="&#xe065;" d="M 576,960L 576-64L 960-64 		zM0-64L 384-64L 384,960 		z" data-tags="flip, mirror, horizontal" />
<glyph unicode="&#xe066;" d="M 761.862-64C 875.588,142.032, 894.75,456.306, 448,445.824L 448,192 L 64,576L 448,960l0-248.372 
	C 982.962,725.57, 1042.57,239.414, 761.862-64z" data-tags="undo, arrow, left" />
<glyph unicode="&#xe067;" d="M 576,711.628L 576,960 l 384-384L 576,192L 576,445.824 C 129.25,456.306, 148.412,142.032, 262.14-64
	C-18.572,239.414, 41.040,725.57, 576,711.628z" data-tags="redo, arrow, right" />
<glyph unicode="&#xe068;" d="M 262.14,960C 148.412,753.968, 129.25,439.696, 576,450.176L 576,704 l 384-384L 576-64L 576,184.372 C 41.040,170.43-18.572,656.586, 262.14,960z" data-tags="forward, arrow, right" />
<glyph unicode="&#xe069;" d="M 448,184.372L 448-64 L 64,320l 384,384l0-253.824 C 894.75,439.696, 875.588,753.968, 761.862,960
	C 1042.572,656.586, 982.962,170.43, 448,184.372z" data-tags="reply, arrow, left" />
<glyph unicode="&#xe06a;" d="M 512,896 C 794.77,896 1024,709.75 1024,480 C 1024,250.248 794.77,64 512,64 C 484.844,64 458.19,65.734 432.176,69.044 C 322.198-40.934 190.926-60.656 64-63.552 L 64-36.636 C 132.536-3.058 192,58.104 192,128 C 192,137.754 191.242,147.33 189.836,156.696 C 74.040,232.96 0,349.45 0,480 C 0,709.75 229.23,896 512,896 Z" data-tags="bubble, comment, chat, talk" />
<glyph unicode="&#xe06b;" d="M 1088,58.834 C 1088,13.334 1114.028-26.074 1152-45.35 L 1152-61.288 C 1141.374-62.742 1130.528-63.512 1119.5-63.512 C 1051.492-63.512 990.152-34.984 946.778,10.752 C 920.556,3.77 892.776,0 864,0 C 704.942,0 576,114.616 576,256 C 576,397.384 704.942,512 864,512 C 1023.058,512 1152,397.384 1152,256 C 1152,200.652 1132.236,149.408 1098.644,107.534 C 1091.82,92.71 1088,76.222 1088,58.834 ZM 512,960 C 790.458,960 1016.992,779.386 1023.836,554.48 C 974.654,576.4 920.25,588 864,588 C 768.44,588 678.184,554.554 609.862,493.822 C 539.016,430.85 500,346.388 500,256 C 500,211.328 509.544,168.112 527.736,128.212 C 522.508,128.086 517.268,128 512,128 C 484.844,128 458.19,129.734 432.176,133.044 C 322.198,23.066 190.926,3.344 64,0.448 L 64,27.364 C 132.536,60.942 192,122.104 192,192 C 192,201.754 191.242,211.33 189.836,220.696 C 74.040,296.96 0,413.45 0,544 C 0,773.75 229.23,960 512,960 Z" horiz-adv-x="1152" data-tags="bubbles, comments, chat, talk" />
<glyph unicode="&#xe06c;" d="M 480,960 L 480,960 C 745.096,960 960,786.086 960,571.552 C 960,357.018 745.096,183.104 480,183.104 C 454.542,183.104 429.554,184.724 405.166,187.814 C 302.060,85.12 182.994,66.706 64,64 L 64,89.134 C 128.252,120.488 180,177.6 180,242.868 C 180,251.974 179.288,260.916 177.97,269.662 C 69.412,340.876 0,449.65 0,571.552 C 0,786.086 214.904,960 480,960 ZM 996,89.314 C 996,33.372 1032.314-15.584 1088-42.458 L 1088-64 C 984.874-61.682 890.214-45.898 800.858,42.126 C 779.718,39.476 758.064,38.086 736,38.086 C 640.53,38.086 552.592,63.844 482.386,107.126 C 627.060,107.632 763.646,153.98 867.22,237.798 C 919.428,280.050 960.614,329.624 989.634,385.146 C 1020.4,444.012 1036,506.728 1036,571.552 C 1036,582 1035.55,592.388 1034.742,602.72 C 1107.312,542.786 1152,461.098 1152,371.044 C 1152,266.556 1091.842,173.322 997.76,112.28 C 996.618,104.784 996,97.12 996,89.314 Z" horiz-adv-x="1152" data-tags="bubbles, comments, chat, talk" />
<glyph unicode="&#xe06d;" d="M 512,768 C 457.068,768 404.012,759.338 354.306,742.258 C 307.594,726.204 266,703.514 230.678,674.814 C 164.464,621.016 128,551.83 128,480 C 128,439.702 139.188,400.622 161.252,363.848 C 184.004,325.928 218.234,291.262 260.24,263.596 C 290.596,243.604 311.020,211.648 316.416,175.702 C 318.216,163.718 319.344,151.614 319.786,139.578 C 327.256,145.772 334.536,152.424 341.666,159.554 C 365.82,183.706 398.446,197.044 432.168,197.044 C 437.536,197.044 442.93,196.708 448.324,196.020 C 469.298,193.354 490.722,192 512,192 C 566.934,192 619.988,200.66 669.694,217.742 C 716.406,233.796 758,256.486 793.322,285.186 C 859.536,338.982 896,408.17 896,480 C 896,551.83 859.536,621.016 793.322,674.814 C 758,703.512 716.406,726.204 669.694,742.258 C 619.988,759.338 566.934,768 512,768 Z M 512,896 L 512,896 C 794.77,896 1024,709.75 1024,480 C 1024,250.248 794.77,64 512,64 C 484.844,64 458.19,65.734 432.176,69.044 C 322.198-40.934 190.926-60.656 64-63.552 L 64-36.636 C 132.536-3.058 192,58.104 192,128 C 192,137.754 191.242,147.33 189.836,156.696 C 74.040,232.96 0,349.45 0,480 C 0,709.75 229.23,896 512,896 Z" data-tags="bubble, comment, chat, talk" />
<glyph unicode="&#xe06e;" d="M 1088,58.834 C 1088,13.334 1114.028-26.074 1152-45.35 L 1152-61.288 C 1141.374-62.742 1130.528-63.512 1119.5-63.512 C 1051.492-63.512 990.152-34.984 946.778,10.752 C 920.556,3.77 892.776,0 864,0 C 704.942,0 576,114.616 576,256 C 576,397.384 704.942,512 864,512 C 1023.058,512 1152,397.384 1152,256 C 1152,200.652 1132.236,149.408 1098.644,107.534 C 1091.82,92.71 1088,76.222 1088,58.834 ZM 230.678,738.814 C 164.464,685.016 128,615.83 128,544 C 128,503.702 139.188,464.622 161.252,427.85 C 184.004,389.93 218.234,355.264 260.24,327.598 C 290.596,307.606 311.020,275.65 316.416,239.704 C 318.216,227.72 319.344,215.616 319.786,203.58 C 327.256,209.774 334.536,216.426 341.666,223.556 C 365.82,247.708 398.446,261.046 432.168,261.046 C 437.536,261.046 442.93,260.71 448.324,260.022 C 469.272,257.36 490.668,256.006 511.918,256.002 L 511.918,128.002 C 484.79,128.004 458.164,129.74 432.176,133.044 C 322.198,23.066 190.926,3.344 64,0.448 L 64,27.364 C 132.536,60.942 192,122.104 192,192 C 192,201.754 191.242,211.33 189.836,220.696 C 74.040,296.96 0,413.45 0,544 C 0,773.75 229.23,960 512,960 C 790.458,960 1016.992,779.386 1023.836,554.48 C 982.74,572.796 937.996,583.902 891.574,587.058 C 880.044,643.126 846.172,695.874 793.322,738.814 C 758,767.512 716.406,790.204 669.694,806.258 C 619.988,823.338 566.934,832 512,832 C 457.068,832 404.012,823.338 354.306,806.258 C 307.594,790.204 266,767.514 230.678,738.814 Z" horiz-adv-x="1152" data-tags="bubbles, comments, chat, talk" />
<glyph unicode="&#xe06f;" d="M 480,832 C 429.334,832 380.418,824.050 334.614,808.372 C 291.69,793.678 253.5,772.936 221.112,746.726 C 161.068,698.136 128,635.924 128,571.552 C 128,535.562 138.066,500.604 157.92,467.654 C 178.606,433.314 209.818,401.86 248.18,376.696 C 278.62,356.728 299.116,324.744 304.542,288.746 C 305.444,282.756 306.172,276.74 306.722,270.714 C 309.444,273.234 312.146,275.828 314.836,278.508 C 338.974,302.548 371.524,315.82 405.158,315.82 C 410.506,315.82 415.876,315.484 421.252,314.802 C 440.612,312.35 460.376,311.106 480,311.106 C 530.666,311.106 579.58,319.054 625.384,334.734 C 668.31,349.426 706.5,370.168 738.888,396.378 C 798.934,444.968 832,507.18 832,571.552 C 832,635.924 798.934,698.134 738.888,746.726 C 706.5,772.938 668.31,793.678 625.384,808.372 C 579.58,824.050 530.666,832 480,832 Z M 480,960 L 480,960 C 745.096,960 960,786.086 960,571.552 C 960,357.018 745.096,183.104 480,183.104 C 454.542,183.104 429.554,184.724 405.166,187.814 C 302.060,85.12 182.994,66.706 64,64 L 64,89.134 C 128.252,120.488 180,177.6 180,242.868 C 180,251.974 179.288,260.916 177.97,269.662 C 69.412,340.876 0,449.65 0,571.552 C 0,786.086 214.904,960 480,960 ZM 996,89.314 C 996,33.372 1032.314-15.584 1088-42.458 L 1088-64 C 984.874-61.682 890.214-45.898 800.858,42.126 C 779.718,39.476 758.064,38.086 736,38.086 C 640.53,38.086 552.592,63.844 482.386,107.126 C 627.060,107.632 763.646,153.98 867.22,237.798 C 919.428,280.050 960.614,329.624 989.634,385.146 C 1020.4,444.012 1036,506.728 1036,571.552 C 1036,582 1035.55,592.388 1034.742,602.72 C 1107.312,542.786 1152,461.098 1152,371.044 C 1152,266.556 1091.842,173.322 997.76,112.28 C 996.618,104.784 996,97.12 996,89.314 Z" horiz-adv-x="1152" data-tags="bubbles, comments, chat, talk" />
<glyph unicode="&#xe070;" d="M 622.826,257.264c-22.11,3.518-22.614,64.314-22.614,64.314s 64.968,64.316, 79.128,150.802
	c 38.090,0, 61.618,91.946, 23.522,124.296C 704.452,630.73, 751.822,864, 512,864c-239.822,0-192.45-233.27-190.864-267.324
	c-38.094-32.35-14.57-124.296, 23.522-124.296c 14.158-86.486, 79.128-150.802, 79.128-150.802s-0.504-60.796-22.614-64.314
	C 329.952,245.932, 64,128.63, 64,0l 448,0 l 448,0 C 960,128.63, 694.048,245.932, 622.826,257.264z" data-tags="user, profile, avatar, person, talk, member" />
<glyph unicode="&#xe071;" d="M 734.994,154.626c-18.952,2.988-19.384,54.654-19.384,54.654s 55.688,54.656, 67.824,128.152
	c 32.652,0, 52.814,78.138, 20.164,105.628c 1.362,28.94, 41.968,227.176-163.598,227.176c-205.564,0-164.958-198.236-163.598-227.176
	c-32.654-27.49-12.488-105.628, 20.162-105.628c 12.134-73.496, 67.826-128.152, 67.826-128.152s-0.432-51.666-19.384-54.654
	C 483.958,144.994, 256,45.31, 256-64l 384,0 l 384,0 C 1024,45.31, 796.042,144.994, 734.994,154.626zM 344.054,137.19c 44.094,27.15, 97.626,52.308, 141.538,67.424c-15.752,22.432-33.294,52.936-44.33,89.062
	c-15.406,12.566-27.944,30.532-35.998,52.602c-8.066,22.104-11.122,46.852-8.608,69.684c 1.804,16.392, 6.478,31.666, 13.65,45.088
	c-4.35,46.586-7.414,138.034, 52.448,204.732c 23.214,25.866, 52.556,44.46, 87.7,55.686C 544.18,786.228, 511.294,862.238, 384,862.238
	c-205.564,0-164.958-198.236-163.598-227.176c-32.654-27.49-12.488-105.628, 20.162-105.628c 12.134-73.496, 67.826-128.152, 67.826-128.152
	s-0.432-51.666-19.384-54.654C 227.958,336.994,0,237.31,0,128l 329.596,0 C 334.306,131.074, 339.102,134.14, 344.054,137.19z" data-tags="users, people, group, team, members, community" />
<glyph unicode="&#xe072;" d="M 848-64L 176-64 c-26.51,0-48,21.49-48,48c0,68.862, 29.068,152.204, 77.758,222.942c 40.692,59.118, 90.684,103.62, 144.678,129.61
		c-23.798,21.644-44.294,48.026-60.508,78.122c-26,48.262-39.746,104.048-39.746,161.328c0,79.606, 26.204,154.822, 73.786,211.79
		C 373.632,847.252, 440.41,880, 512,880s 138.368-32.748, 188.034-92.21c 47.58-56.968, 73.786-132.182, 73.786-211.79
		c0-57.28-13.744-113.066-39.744-161.328c-16.214-30.096-36.71-56.478-60.51-78.122c 53.994-25.99, 103.986-70.492, 144.678-129.61
		C 866.932,136.204, 896,52.862, 896-16C 896-42.51, 874.51-64, 848-64z M 230.074,32l 563.852,0 
		c-9.226,39.34-28.52,82.384-54.762,120.51c-41.454,60.226-93.176,99.622-145.638,110.926c-22.106,4.764-37.888,24.31-37.888,46.924
		l0,34.292 c0,17.26, 9.266,33.19, 24.27,41.722c 59.478,33.832, 97.912,108.266, 97.912,189.626c0,114.692-74.384,208-165.818,208
		c-91.432,0-165.818-93.308-165.818-208c0-81.36, 38.434-155.792, 97.914-189.626c 15.002-8.534, 24.268-24.462, 24.268-41.722l0-34.292 
		c0-22.614-15.784-42.16-37.888-46.924c-52.462-11.304-104.184-50.7-145.64-110.926C 258.592,114.384, 239.302,71.34, 230.074,32z" data-tags="user, profile, avatar, person, talk, member" />
<glyph unicode="&#xe073;" d="M 976-64L 304-64 c-26.51,0-48,21.49-48,48c0,68.862, 29.068,152.204, 77.758,222.942c 40.692,59.118, 90.684,103.62, 144.678,129.61
		c-23.798,21.644-44.294,48.026-60.508,78.122c-26,48.262-39.746,104.048-39.746,161.328c0,79.606, 26.204,154.822, 73.786,211.79
		C 501.632,847.252, 568.41,880, 640,880s 138.368-32.748, 188.034-92.21c 47.58-56.968, 73.786-132.182, 73.786-211.79
		c0-57.28-13.744-113.066-39.744-161.328c-16.214-30.096-36.71-56.478-60.51-78.122c 53.994-25.99, 103.986-70.492, 144.678-129.61
		C 994.932,136.204, 1024,52.862, 1024-16C 1024-42.51, 1002.51-64, 976-64z M 358.074,32l 563.852,0 
		c-9.226,39.34-28.52,82.384-54.762,120.51c-41.454,60.226-93.176,99.622-145.638,110.926c-22.106,4.764-37.888,24.31-37.888,46.924
		l0,34.292 c0,17.26, 9.266,33.19, 24.27,41.722c 59.478,33.832, 97.912,108.266, 97.912,189.626c0,114.692-74.384,208-165.818,208
		s-165.818-93.308-165.818-208c0-81.36, 38.434-155.792, 97.914-189.626c 15.002-8.534, 24.268-24.462, 24.268-41.722l0-34.292 
		c0-22.614-15.784-42.16-37.888-46.924c-52.462-11.304-104.184-50.7-145.64-110.926C 386.592,114.384, 367.302,71.34, 358.074,32zM 197.114,96l-95.040,0 c 9.228,39.34, 28.518,82.384, 54.76,120.51c 41.456,60.226, 93.178,99.622, 145.64,110.926
		c 22.106,4.764, 37.888,24.31, 37.888,46.924l0,34.292 c0,17.26-9.266,33.19-24.268,41.722c-59.48,33.834-97.914,108.266-97.914,189.626
		c0,114.692, 74.384,208, 165.818,208c 6.254,0, 12.426-0.452, 18.502-1.302c 26.358,29.334, 56.234,53.174, 88.642,71.004
		C 457.95,934.934, 421.642,944, 384,944c-71.59,0-138.368-32.748-188.034-92.21C 148.386,794.822, 122.182,719.606, 122.182,640
		c0-57.28, 13.744-113.066, 39.746-161.328c 16.214-30.096, 36.71-56.476, 60.508-78.122c-53.994-25.99-103.986-70.492-144.678-129.61
		C 29.068,200.204,0,116.862,0,48c0-26.51, 21.49-48, 48-48l 132.386,0 C 181.862,31.026, 187.584,63.412, 197.114,96z" data-tags="users, people, group, team, members, community" />
<glyph unicode="&#xe074;" d="M 256,640A256,256 12780 1 0 768,640A256,256 12780 1 0 256,640zM 768,320L 256,320 C 114.616,320,0,205.382,0,64l0-64 l 8.066,0 l 1007.868,0 L 1024,0 l0,64 C 1024,205.382, 909.384,320, 768,320z" data-tags="user, profile, avatar, person, talk, member" />
<glyph unicode="&#xe075;" d="M 320,768A192,192 10980 1 0 704,768A192,192 10980 1 0 320,768zM 768.078,512l-0.156,0 l-35.268,0 l-199.104-404.244L 608,480l-96,96l-96-96l 74.45-372.244L 291.348,512l-35.27,0 l-0.154,0 
		C 128,512, 128,426.014, 128,320l0-320 l 768,0 L 896,320 C 896,426.014, 896,512, 768.078,512z" data-tags="user, profile, avatar, person, talk, member, employee, job, official" />
<glyph unicode="&#xe076;" d="M 225,512 C 348.712,512 449,411.71 449,288 C 449,164.288 348.712,64 225,64 C 101.288,64 1,164.288 1,288 L 0,320 C 0,567.424 200.576,768 448,768 L 448,640 C 362.526,640 282.166,606.714 221.726,546.274 C 210.092,534.638 199.474,522.258 189.896,509.254 C 201.334,511.054 213.056,512 225,512 ZM 801,512 C 924.71,512 1025,411.71 1025,288 C 1025,164.288 924.71,64 801,64 C 677.29,64 577,164.288 577,288 L 576,320 C 576,567.424 776.576,768 1024,768 L 1024,640 C 938.526,640 858.166,606.714 797.726,546.274 C 786.090,534.638 775.472,522.258 765.894,509.254 C 777.334,511.054 789.054,512 801,512 Z" data-tags="quotes-left, ldquo" />
<glyph unicode="&#xe077;" d="M 728.992,448C 866.746,535.334, 960,703.208, 960,896c0,21.676-1.192,43.034-3.478,64L 67.48,960 C 65.19,939.032, 64,917.674, 64,896
		c0-192.792, 93.254-360.666, 231.006-448C 157.254,360.666, 64,192.792, 64,0c0-21.676, 1.19-43.034, 3.478-64l 889.042,0 
		c 2.288,20.966, 3.478,42.324, 3.478,64C 960,192.792, 866.746,360.666, 728.992,448z M 160,0c0,186.912, 80.162,345.414, 224,397.708
		l0,100.586 l0,0 C 240.162,550.584, 160,709.086, 160,896l0,0 l 704,0 l0,0 c0-186.914-80.162-345.416-224-397.706l0-100.586 
		C 783.838,345.414, 864,186.912, 864,0L 160,0 zM 619.626,290.406c-71.654,40.644-75.608,93.368-75.626,125.366L 544,480 c0,31.994, 3.804,84.914, 75.744,125.664
		c 38.504,22.364, 71.808,56.348, 97.048,98.336L 307.21,704 c 25.266-42.032, 58.612-76.042, 97.166-98.406
		c 71.654-40.644, 75.606-93.366, 75.626-125.366L 480.002,416 c0-31.992-3.804-84.914-75.744-125.664c-72.622-42.18-126.738-125.684-143.090-226.336
		l 501.67,0 C 746.474,164.708, 692.308,248.248, 619.626,290.406z" data-tags="busy, wait, loading, hour glass" />
<glyph unicode="&#xe078;" d="M 384,832A128,128 12780 1 0 640,832A128,128 12780 1 0 384,832zM 655.53,719.53A128,128 12780 1 0 911.53,719.53A128,128 12780 1 0 655.53,719.53zM 832,448A64,64 12780 1 0 960,448A64,64 12780 1 0 832,448zM 719.53,176.47A64,64 12780 1 0 847.53,176.47000000000003A64,64 12780 1 0 719.53,176.47000000000003zM 448.002,64A64,64 12780 1 0 576.002,64A64,64 12780 1 0 448.002,64zM 176.472,176.47A64,64 12780 1 0 304.472,176.47000000000003A64,64 12780 1 0 176.472,176.47000000000003zM 144.472,719.53A96,96 12780 1 0 336.472,719.53A96,96 12780 1 0 144.472,719.53zM 56,448A72,72 12780 1 0 200,448A72,72 12780 1 0 56,448z" data-tags="spinner, loading, busy, wait, wheel" />
<glyph unicode="&#xe079;" d="M 1024,448c-1.278,66.862-15.784,133.516-42.576,194.462c-26.704,61-65.462,116.258-113.042,161.92
	c-47.552,45.696-103.944,81.82-164.984,105.652C 642.394,933.958, 576.802,945.386, 512,944c-64.81-1.282-129.332-15.374-188.334-41.356
	c-59.048-25.896-112.542-63.47-156.734-109.576c-44.224-46.082-79.16-100.708-102.186-159.798C 41.632,574.208, 30.618,510.75, 32,448
	c 1.286-62.76, 14.964-125.148, 40.134-182.206c 25.088-57.1, 61.476-108.828, 106.11-151.548c 44.61-42.754, 97.472-76.504, 154.614-98.72
	C 389.976-6.778, 451.304-17.376, 512-16c 60.708,1.29, 120.962,14.554, 176.076,38.914c 55.15,24.282, 105.116,59.48, 146.366,102.644
	c 41.282,43.14, 73.844,94.236, 95.254,149.43c 13.034,33.458, 21.88,68.4, 26.542,103.798c 1.246-0.072, 2.498-0.12, 3.762-0.12
	c 35.346,0, 64,28.652, 64,64c0,1.796-0.094,3.572-0.238,5.332L 1024,447.998 z M 922.306,278.052c-23.472-53.202-57.484-101.4-99.178-141.18
	c-41.67-39.81-91-71.186-144.244-91.79C 625.656,24.404, 568.594,14.63, 512,16c-56.604,1.298-112.596,13.736-163.82,36.474
	c-51.25,22.666-97.684,55.49-135.994,95.712c-38.338,40.198-68.528,87.764-88.322,139.058C 103.994,338.528, 94.636,393.458, 96,448
	c 1.302,54.552, 13.328,108.412, 35.254,157.69c 21.858,49.3, 53.498,93.97, 92.246,130.81c 38.73,36.868, 84.53,65.87, 133.874,84.856
	C 406.712,840.416, 459.51,849.362, 512,848c 52.5-1.306, 104.228-12.918, 151.562-34.034c 47.352-21.050, 90.256-51.502, 125.624-88.782
	c 35.396-37.258, 63.21-81.294, 81.39-128.688C 888.824,549.104, 897.358,498.438, 896,448l 0.238,0 c-0.144-1.76-0.238-3.536-0.238-5.332
	c0-33.012, 24.992-60.174, 57.086-63.624C 946.862,344.222, 936.556,310.226, 922.306,278.052z" data-tags="spinner, loading, busy, wait, wheel" />
<glyph unicode="&#xe07a;" d="M 192,448c0,12.18, 0.704,24.196, 2.030,36.022l-184.98,60.104C 3.134,512.986,0,480.862,0,448
			c0-147.23, 62.166-279.922, 161.654-373.324l 114.284,157.296C 223.814,288.898, 192,364.73, 192,448zM 832,448c0-83.268-31.812-159.102-83.938-216.028l 114.284-157.296C 961.834,168.078, 1024,300.77, 1024,448
			c0,32.862-3.132,64.986-9.048,96.126l-184.98-60.104C 831.296,472.194, 832,460.18, 832,448zM 576,761.592c 91.934-18.662, 169.544-76.742, 214.45-155.826l 184.978,60.102C 902.232,821.288, 753.188,933.928, 576,956.024L 576,761.592 zM 233.55,605.768c 44.906,79.084, 122.516,137.164, 214.45,155.826L 448,956.024 C 270.812,933.928, 121.77,821.288, 48.574,665.87
			L 233.55,605.768zM 644.556,156.672C 604.166,138.264, 559.284,128, 512,128s-92.166,10.264-132.554,28.67l-114.292-157.31
			C 338.36-41.006, 422.49-64, 512-64s 173.64,22.994, 246.848,63.36L 644.556,156.672z" data-tags="spinner, loading, busy, wait, wheel" />
<glyph unicode="&#xe07b;" d="M 512,960C 229.23,960,0,730.77,0,448s 229.23-512, 512-512s 512,229.23, 512,512S 794.77,960, 512,960z M 512,704
	c 141.384,0, 256-114.616, 256-256s-114.616-256-256-256s-256,114.616-256,256S 370.616,704, 512,704z M 817.47,142.53
	C 735.876,60.936, 627.39,16, 512,16c-115.392,0-223.876,44.936-305.47,126.53C 124.936,224.124, 80,332.608, 80,448
	c0,115.39, 44.936,223.876, 126.53,305.47l 67.882-67.882c0,0,0,0,0,0c-131.006-131.006-131.006-344.17,0-475.176
	C 337.874,146.95, 422.25,112, 512,112c 89.748,0, 174.124,34.95, 237.588,98.412c 131.006,131.006, 131.006,344.168,0,475.176l 67.882,67.882
	C 899.064,671.876, 944,563.39, 944,448C 944,332.608, 899.064,224.124, 817.47,142.53z" data-tags="spinner, loading, busy, wait, wheel" />
<glyph unicode="&#xe07c;" d="M 512,960 C 233.252,960 6.542,737.238 0.152,460.026 C 6.072,701.89 189.984,896 416,896 C 645.75,896 832,695.424 832,448 C 832,394.98 874.98,352 928,352 C 981.020,352 1024,394.98 1024,448 C 1024,730.77 794.77,960 512,960 ZM 512-64 C 790.748-64 1017.458,158.762 1023.848,435.974 C 1017.928,194.11 834.016,0 608,0 C 378.25,0 192,200.576 192,448 C 192,501.020 149.020,544 96,544 C 42.98,544 0,501.020 0,448 C 0,165.23 229.23-64 512-64 Z" data-tags="spinner, loading, busy, wait, wheel" />
<glyph unicode="&#xe07d;" d="M 1024,576 L 640,576 L 783.53,719.53 C 711,792.056 614.57,832 512,832 C 409.43,832 313,792.056 240.47,719.53 C 167.944,647 128,550.57 128,448 C 128,345.43 167.944,249 240.47,176.47 C 313,103.944 409.43,64 512,64 C 614.57,64 711,103.944 783.528,176.472 C 789.584,182.526 795.388,188.764 800.984,195.14 L 897.304,110.858 C 803.458,3.692 665.64-64 512-64 C 229.23-64 0,165.23 0,448 C 0,730.77 229.23,960 512,960 C 653.386,960 781.368,902.674 874.016,810.016 L 1024,960 L 1024,576 Z" data-tags="spinner, loading, busy, wait, wheel, repeat" />
<glyph unicode="&#xe07e;" d="M 64,960L 448,960L 448,896L 64,896zM 576,960L 960,960L 960,896L 576,896zM 952,640l-56,0 L 896,896 L 640,896 l0-256 L 384,640 L 384,896 L 128,896 l0-256 L 72,640 c-39.6,0-72-32.4-72-72l0-560 c0-39.6, 32.4-72, 72-72l 304,0 c 39.6,0, 72,32.4, 72,72L 448,384 l 128,0 
	l0-376 c0-39.6, 32.4-72, 72-72l 304,0 c 39.6,0, 72,32.4, 72,72L 1024,568 C 1024,607.6, 991.6,640, 952,640z M 348,0L 100,0 c-19.8,0-36,14.4-36,32
	s 16.2,32, 36,32l 248,0 c 19.8,0, 36-14.4, 36-32S 367.8,0, 348,0z M 544,448l-64,0 c-17.6,0-32,14.4-32,32s 14.4,32, 32,32l 64,0 c 17.6,0, 32-14.4, 32-32
	S 561.6,448, 544,448z M 924,0L 676,0 c-19.8,0-36,14.4-36,32s 16.2,32, 36,32l 248,0 c 19.8,0, 36-14.4, 36-32S 943.8,0, 924,0z" data-tags="binoculars, lookup, search, find" />
<glyph unicode="&#xe07f;" d="M 992.262,88.604L 749.71,294.898c-25.074,22.566-51.89,32.926-73.552,31.926C 733.414,393.892, 768,480.902, 768,576
	C 768,788.078, 596.078,960, 384,960C 171.924,960,0,788.078,0,576c0-212.078, 171.922-384, 384-384c 95.098,0, 182.108,34.586, 249.176,91.844
	c-1-21.662, 9.36-48.478, 31.926-73.552l 206.294-242.552c 35.322-39.246, 93.022-42.554, 128.22-7.356S 1031.508,53.282, 992.262,88.604z
	 M 384,320c-141.384,0-256,114.616-256,256S 242.616,832, 384,832s 256-114.616, 256-256S 525.386,320, 384,320z" data-tags="search, magnifier, lookup, find" />
<glyph unicode="&#xe080;" d="M 992.262,88.604L 749.71,294.898c-25.074,22.566-51.89,32.926-73.552,31.926C 733.414,393.892, 768,480.902, 768,576
		C 768,788.078, 596.078,960, 384,960C 171.924,960,0,788.078,0,576c0-212.078, 171.922-384, 384-384c 95.098,0, 182.108,34.586, 249.176,91.844
		c-1-21.662, 9.36-48.478, 31.926-73.552l 206.294-242.552c 35.322-39.246, 93.022-42.554, 128.22-7.356S 1031.508,53.282, 992.262,88.604
		z M 384,320c-141.384,0-256,114.616-256,256S 242.616,832, 384,832s 256-114.616, 256-256S 525.386,320, 384,320zM 448,768L 320,768L 320,640L 192,640L 192,512L 320,512L 320,384L 448,384L 448,512L 576,512L 576,640L 448,640 	z" data-tags="zoom in, enlarge, scale" />
<glyph unicode="&#xe081;" d="M 992.262,88.604L 749.71,294.898c-25.074,22.566-51.89,32.926-73.552,31.926C 733.414,393.892, 768,480.902, 768,576
		C 768,788.078, 596.078,960, 384,960C 171.924,960,0,788.078,0,576c0-212.078, 171.922-384, 384-384c 95.098,0, 182.108,34.586, 249.176,91.844
		c-1-21.662, 9.36-48.478, 31.926-73.552l 206.294-242.552c 35.322-39.246, 93.022-42.554, 128.22-7.356S 1031.508,53.282, 992.262,88.604
		z M 384,320c-141.384,0-256,114.616-256,256S 242.616,832, 384,832s 256-114.616, 256-256S 525.386,320, 384,320zM 192,640L 576,640L 576,512L 192,512z" data-tags="zoom out, smaller, scale, reduce" />
<glyph unicode="&#xe082;" d="M 1024,960 L 1024,576 L 885.74,714.26 L 673.74,502.26 L 566.26,609.74 L 778.26,821.74 L 640,960 ZM 245.74,821.74 L 457.74,609.74 L 350.26,502.26 L 138.26,714.26 L 0,576 L 0,960 L 384,960 ZM 885.74,181.74 L 1024,320 L 1024-64 L 640-64 L 778.26,74.26 L 566.26,286.26 L 673.74,393.74 ZM 457.74,286.26 L 245.74,74.26 L 384-64 L 0-64 L 0,320 L 138.26,181.74 L 350.26,393.74 Z" data-tags="expand, enlarge, maximize, fullscreen" />
<glyph unicode="&#xe083;" d="M 64,384 L 448,384 L 448,0 L 309.74,138.26 L 107.74-63.74 L 0.26,43.74 L 202.26,245.74 ZM 821.74,245.74 L 1023.74,43.74 L 916.26-63.74 L 714.26,138.26 L 576,0 L 576,384 L 960,384 ZM 960,512 L 576,512 L 576,896 L 714.26,757.74 L 916.26,959.74 L 1023.74,852.26 L 821.74,650.26 ZM 309.74,757.74 L 448,896 L 448,512 L 64,512 L 202.26,650.26 L 0.26,852.26 L 107.74,959.74 Z" data-tags="contract, minimize, shrink, collapse" />
<glyph unicode="&#xe084;" d="M 1024,960 L 1024,544 L 864,704 L 672,512 L 576,608 L 768,800 L 608,960 ZM 448,288 L 256,96 L 416-64 L 0-64 L 0,352 L 160,192 L 352,384 Z" data-tags="expand, enlarge, maximize, fullscreen" />
<glyph unicode="&#xe085;" d="M 448,384 L 448-32 L 288,128 L 96-64 L 0,32 L 192,224 L 32,384 ZM 1024,864 L 832,672 L 992,512 L 576,512 L 576,928 L 736,768 L 928,960 Z" data-tags="contract, minimize, shrink, collapse" />
<glyph unicode="&#xe086;" d="M 1002.132,645.758l-101.106,101.104c-24.792,24.794-65.37,65.368-90.162,90.164l-101.106,101.104
	c-24.792,24.794-68.954,29.166-98.13,9.716L 335.19,763.554c-29.176-19.452-40.218-61.028-24.536-92.39l 70.486-140.974
	c 2.154-4.306, 4.646-8.896, 7.39-13.66L 32,160L0-64l 192,0 l0,64 l 128,0 l0,128 l 128,0 l0,128l 128,0 l0,71.186 c 6.396-3.812, 12.534-7.216, 18.192-10.044
	l 140.97-70.488c 31.366-15.682, 72.94-4.638, 92.39,24.538l 184.294,276.44C 1031.3,576.804, 1026.924,620.962, 1002.132,645.758z
	 M 150.628,105.374l-45.254,45.254l 311.572,311.57l 45.254-45.254L 150.628,105.374z M 917.020,536.236l-45.256-45.256
	c-12.446-12.444-32.808-12.444-45.254,0L 554.98,762.51c-12.446,12.444-12.446,32.81,0,45.254l 45.256,45.256
	c 12.446,12.444, 32.808,12.444, 45.254,0L 917.020,581.49C 929.466,569.046, 929.466,548.68, 917.020,536.236z" data-tags="key, password, login, log in, signin, sign in" />
<glyph unicode="&#xe087;" d="M 704,960c-176.73,0-320-143.268-320-320c0-20.026, 1.858-39.616, 5.376-58.624L0,192l0-192 c0-35.346, 28.654-64, 64-64
	l 64,0 l0,64 l 128,0 l0,128 l 128,0 l0,128 l 128,0 l 83.042,83.042C 629.052,326.726, 665.738,320, 704,320c 176.73,0, 320,143.268, 320,320S 880.73,960, 704,960z
	 M 799.874,639.874c-53.020,0-96,42.98-96,96s 42.98,96, 96,96s 96-42.98, 96-96S 852.894,639.874, 799.874,639.874z" data-tags="key, password, login, log in, signin, sign in" />
<glyph unicode="&#xe088;" d="M 832,512l-64,0 l0,192 C 768,845.384, 653.384,960, 512,960c-141.384,0-256-114.616-256-256l0-192 L 192,512 c-35.2,0-64-28.8-64-64l0-448 
	c0-35.2, 28.8-64, 64-64l 640,0 c 35.2,0, 64,28.8, 64,64L 896,448 C 896,483.2, 867.2,512, 832,512z M 512,128c-35.346,0-64,28.654-64,64
	s 28.654,64, 64,64s 64-28.654, 64-64S 547.346,128, 512,128z M 640,512L 384,512 l0,192 c0,70.58, 57.42,128, 128,128s 128-57.42, 128-128L 640,512 z" data-tags="lock, secure, private, encrypted" />
<glyph unicode="&#xe089;" d="M 592,512l-16,0 l0,192 c0,105.87-86.13,192-192,192l-128,0 c-105.87,0-192-86.13-192-192l0-192 l-16,0 c-26.4,0-48-21.6-48-48l0-480 
	c0-26.4, 21.6-48, 48-48l 544,0 c 26.4,0, 48,21.6, 48,48L 640,464 C 640,490.4, 618.4,512, 592,512z M 384,64l-128,0 l 27.84,139.2
	C 267.032,214.732, 256,234.074, 256,256c0,35.346, 28.654,64, 64,64c 35.346,0, 64-28.654, 64-64c0-21.926-11.032-41.268-27.84-52.8L 384,64
	z M 448,512L 192,512 l0,192 c0,35.29, 28.71,64, 64,64l 128,0 c 35.29,0, 64-28.71, 64-64L 448,512 z" data-tags="lock, secure, private, encrypted" />
<glyph unicode="&#xe08a;" d="M 768,896l-128,0 c-105.87,0-192-86.13-192-192l0-192 L 48,512 c-26.4,0-48-21.6-48-48l0-480 c0-26.4, 21.6-48, 48-48l 544,0 c 26.4,0, 48,21.6, 48,48L 640,464 
	c0,26.4-21.6,48-48,48l-16,0 l0,192 c0,35.29, 28.71,64, 64,64l 128,0 c 35.29,0, 64-28.71, 64-64l0-192 l 128,0 l0,192 C 960,809.87, 873.87,896, 768,896z
	 M 384,64l-128,0 l 27.84,139.2C 267.032,214.732, 256,234.074, 256,256c0,35.346, 28.654,64, 64,64c 35.346,0, 64-28.654, 64-64
	c0-21.926-11.032-41.268-27.84-52.8L 384,64z" data-tags="unlocked, lock" />
<glyph unicode="&#xe08b;" d="M 1002.934,142.124l-460.552,394.76C 563.83,577.182, 576,623.166, 576,672C 576,831.058, 447.058,960, 288,960
	c-29.094,0-57.172-4.332-83.646-12.354l 166.39-166.39c 24.89-24.89, 24.89-65.62,0-90.51l-101.49-101.49
	c-24.89-24.89-65.62-24.89-90.51,0L 12.354,755.646C 4.332,729.172,0,701.094,0,672c0-159.058, 128.942-288, 288-288
	c 48.834,0, 94.818,12.17, 135.116,33.62l 394.76-460.552c 22.908-26.724, 62.016-28.226, 86.904-3.338l 101.492,101.492
	C 1031.16,80.11, 1029.658,119.216, 1002.934,142.124z" data-tags="wrench, settings, control, tool, options, preferences, fix" />
<glyph unicode="&#xe08c;" d="M 448,832l0,16 c0,26.4-21.6,48-48,48l-160,0 c-26.4,0-48-21.6-48-48l0-16 L0,832 l0-128 l 192,0 l0-16 c0-26.4, 21.6-48, 48-48l 160,0 c 26.4,0, 48,21.6, 48,48l0,16 
		l 576,0 L 1024,832 L 448,832 z M 256,704L 256,832 l 128,0 l0-128 L 256,704 zM 832,528c0,26.4-21.6,48-48,48l-160,0 c-26.4,0-48-21.6-48-48l0-16 L0,512 l0-128 l 576,0 l0-16 c0-26.4, 21.6-48, 48-48l 160,0 c 26.4,0, 48,21.6, 48,48l0,16 
		l 192,0 l0,128 l-192,0 L 832,528 z M 640,384l0,128 l 128,0 l0-128 L 640,384 zM 448,208c0,26.4-21.6,48-48,48l-160,0 c-26.4,0-48-21.6-48-48l0-16 L0,192 l0-128 l 192,0 l0-16 c0-26.4, 21.6-48, 48-48l 160,0 c 26.4,0, 48,21.6, 48,48l0,16 
		l 576,0 l0,128 L 448,192 L 448,208 z M 256,64l0,128 l 128,0 l0-128 L 256,64 z" data-tags="settings, preferences, options" />
<glyph unicode="&#xe08d;" d="M 896,512l 16,0 c 26.4,0 48,21.6 48,48l0,160 c0,26.4-21.6,48-48,48l-16,0 L 896,960 l-128,0 l 0-192 l-16,0 c-26.4,0, -48-21.6, -48-48l 0-160 c 0-26.4, 21.6-48, 48-48l 16,0 
		l 0-576 L 896-64 L 896,512 z M 768,704L 896,704 l 0-128 l-128,0 L 768,704 zM 592,128c 26.4,0 48,21.6 48,48l0,160 c0,26.4-21.6,48-48,48l-16,0 L 576,960 l-128,0 l 0-576 l-16,0 c-26.4,0, -48-21.6, -48-48l 0-160 c 0-26.4, 21.6-48, 48-48l 16,0 
		l 0-192 l 128,0 l0,192 L 592,128 z M 448,320l 128,0 l 0-128 l-128,0 L 448,320 zM 272,512c 26.4,0 48,21.6 48,48l0,160 c0,26.4-21.6,48-48,48l-16,0 L 256,960 l-128,0 l 0-192 l-16,0 c-26.4,0, -48-21.6, -48-48l 0-160 c 0-26.4, 21.6-48, 48-48l 16,0 
		l 0-576 l 128,0 L 256,512 L 272,512 z M 128,704l 128,0 l 0-128 l-128,0 L 128,704 z" data-tags="equalizer, control, options, settings, dashboard" />
<glyph unicode="&#xe08e;" d="M 933.79,349.75c-53.726,93.054-21.416,212.304, 72.152,266.488l-100.626,174.292c-28.75-16.854-62.176-26.518-97.846-26.518
	c-107.536,0-194.708,87.746-194.708,195.99L 411.504,960.002 c 0.266-33.41-8.074-67.282-25.958-98.252
	c-53.724-93.056-173.156-124.702-266.862-70.758L 18.060,616.7c 28.97-16.472, 54.050-40.588, 71.886-71.478
	c 53.638-92.908, 21.512-211.92-71.708-266.224l 100.626-174.292c 28.65,16.696, 61.916,26.254, 97.4,26.254
	c 107.196,0, 194.144-87.192, 194.7-194.958l 201.254,0 c-0.086,33.074, 8.272,66.57, 25.966,97.218
	c 53.636,92.906, 172.776,124.594, 266.414,71.012l 100.626,174.29C 976.444,294.988, 951.532,319.020, 933.79,349.75z M 512,240.668
	c-114.508,0-207.336,92.824-207.336,207.334c0,114.508, 92.826,207.334, 207.336,207.334c 114.508,0, 207.332-92.826, 207.332-207.334
	C 719.33,333.492, 626.508,240.668, 512,240.668z" data-tags="cog, preferences, settings, gear, generate, control, options" />
<glyph unicode="&#xe08f;" d="M 363.722,237.948l 41.298,57.816l-45.254,45.256l-57.818-41.296c-10.722,5.994-22.204,10.774-34.266,14.192L 256,384L 192,384 
		l-11.68-70.086c-12.062-3.418-23.544-8.198-34.266-14.192L 88.236,341.020L 42.98,295.764l 41.298-57.816
		c-5.994-10.72-10.774-22.206-14.192-34.266L0,192l0-64 l 70.086-11.682c 3.418-12.060, 8.198-23.544, 14.192-34.266L 42.98,24.236l 45.254-45.256
		l 57.818,41.296c 10.722-5.994, 22.204-10.774, 34.266-14.192L 192-64l 64,0 l 11.68,70.086c 12.062,3.418, 23.544,8.198, 34.266,14.192l 57.818-41.296
		l 45.254,45.256l-41.298,57.816c 5.994,10.72, 10.774,22.206, 14.192,34.266L 448,128l0,64 l-70.086,11.682
		C 374.496,215.742, 369.716,227.226, 363.722,237.948z M 224,96c-35.348,0-64,28.654-64,64s 28.652,64, 64,64s 64-28.654, 64-64
		S 259.348,96, 224,96zM 1024,576l0,64 l-67.382,12.25c-1.242,8.046-2.832,15.978-4.724,23.79l 57.558,37.1L 984.96,772.268l-66.944-14.468
		c-4.214,6.91-8.726,13.62-13.492,20.13l 39.006,56.342l-45.256,45.254l-56.342-39.006c-6.512,4.766-13.22,9.276-20.13,13.494
		l 14.468,66.944L 777.142,945.452l-37.1-57.558c-7.812,1.892-15.744,3.482-23.79,4.724L 704,960l-64,0 l-12.252-67.382
		c-8.046-1.242-15.976-2.832-23.79-4.724L 566.86,945.452L 507.732,920.96l 14.468-66.944c-6.91-4.216-13.62-8.728-20.13-13.494
		l-56.342,39.006l-45.254-45.254l 39.006-56.342c-4.766-6.51-9.278-13.22-13.494-20.13l-66.944,14.468l-24.492-59.128l 57.558-37.1
		c-1.892-7.812-3.482-15.742-4.724-23.79L 320,640l0-64 l 67.382-12.25c 1.242-8.046, 2.832-15.978, 4.724-23.79l-57.558-37.1
		l 24.492-59.128l 66.944,14.468c 4.216-6.91, 8.728-13.618, 13.494-20.13l-39.006-56.342l 45.254-45.256l 56.342,39.006
		c 6.51-4.766, 13.22-9.276, 20.13-13.492l-14.468-66.944l 59.128-24.492l 37.102,57.558c 7.81-1.892, 15.742-3.482, 23.788-4.724L 640,256l 64,0 
		l 12.252,67.382c 8.044,1.242, 15.976,2.832, 23.79,4.724l 37.1-57.558l 59.128,24.492l-14.468,66.944
		c 6.91,4.216, 13.62,8.726, 20.13,13.492l 56.342-39.006l 45.256,45.256l-39.006,56.342c 4.766,6.512, 9.276,13.22, 13.492,20.13
		l 66.944-14.468l 24.492,59.13l-57.558,37.1c 1.892,7.812, 3.482,15.742, 4.724,23.79L 1024,576z M 672,468.8
		c-76.878,0-139.2,62.322-139.2,139.2c0,76.878, 62.32,139.2, 139.2,139.2s 139.2-62.322, 139.2-139.2C 811.2,531.122, 748.88,468.8, 672,468.8z" data-tags="cogs, settings, gears, generate, control, options" />
<glyph unicode="&#xe090;" d="M 1024,351.906l0,192.188 l-146.774,24.462c-5.958,18.132-13.222,35.668-21.694,52.5l 86.454,121.034l-135.896,135.898l-120.826-86.304
		c-16.91,8.554-34.538,15.888-52.768,21.902L 608.094,960l-192.188,0 l-24.402-146.416c-18.23-6.014-35.858-13.348-52.766-21.902
		l-120.828,86.304l-135.898-135.898l 86.454-121.036c-8.47-16.83-15.734-34.366-21.692-52.498L0,544.094l0-192.188 l 147.118-24.52
		c 5.96-17.968, 13.21-35.348, 21.642-52.030l-86.748-121.448l 135.898-135.896l 121.654,86.894c 16.602-8.35, 33.89-15.528, 51.764-21.434
		L 415.906-64l 192.188,0 l 24.578,147.474c 17.874,5.906, 35.162,13.084, 51.766,21.432l 121.652-86.892l 135.896,135.896l-86.744,121.446
		c 8.432,16.682, 15.678,34.062, 21.64,52.032L 1024,351.906z M 512,320c-70.692,0-128,57.306-128,128c0,70.692, 57.308,128, 128,128
		c 70.694,0, 128-57.308, 128-128C 640,377.306, 582.694,320, 512,320z" data-tags="cog, preferences, settings, gear, generate, control, options" />
<glyph unicode="&#xe091;" d="M 1009.996,131.024L 708.452,432.568c-18.668,18.668-49.214,18.668-67.882,0l-22.626-22.626l-184,184L 736,896L 416,896 l-142.058-142.058
	L 259.882,768L 192,768 l0-67.882 l 14.058-14.058L0,480l 160-160l 206.058,206.058l 184-184l-22.626-22.626c-18.668-18.668-18.668-49.214,0-67.882
	l 301.544-301.544c 18.668-18.668, 49.214-18.668, 67.882,0l 113.136,113.136C 1028.664,81.808, 1028.664,112.356, 1009.996,131.024z" data-tags="hammer, tool, fix, make, generate, work, build" />
<glyph unicode="&#xe092;" d="M 256,768L 128,896L 64,896L 64,832L 192,704 	zM 320,960L 384,960L 384,832L 320,832zM 576,640L 704,640L 704,576L 576,576zM 640,832L 640,896L 576,896L 448,768L 512,704 	zM0,640L 128,640L 128,576L0,576zM 320,384L 384,384L 384,256L 320,256zM 64,384L 64,320L 128,320L 256,448L 192,512 	zM 1010,78L 373.882,714.118c-18.668,18.668-49.214,18.668-67.882,0L 245.882,654c-18.668-18.668-18.668-49.214,0-67.882L 882-50
		c 18.668-18.668, 49.214-18.668, 67.882,0L 1010,10.118C 1028.668,28.786, 1028.668,59.332, 1010,78z M 480,416l-192,192l 64,64l 192-192L 480,416z" data-tags="wand, magic, wizard" />
<glyph unicode="&#xe093;" d="M 896,704l-192,0 L 704,832 c0,35.2-28.8,64-64,64L 384,896 c-35.2,0-64-28.8-64-64l0-128 L 128,704 c-70.4,0-128-57.6-128-128l0-512 c0-70.4, 57.6-128, 128-128l 768,0 
	c 70.4,0, 128,57.6, 128,128L 1024,576 C 1024,646.4, 966.4,704, 896,704z M 384,832l 256,0 l0-128 L 384,704 L 384,832 z M 768,256l-192,0 l0-192 l-128,0 l0,192 l-192,0 l0,128 l 192,0 l0,192 l 128,0 l0-192 l 192,0 
	L 768,256 z" data-tags="aid, medicine, medical, kit, health" />
<glyph unicode="&#xe094;" d="M 1024,384l0,64 l-193.29,0 c-5.862,72.686-31.786,139.026-71.67,192.25l 161.944,0 l 70.060,280.24l-62.090,15.522l-57.94-231.76l-174.68,0 
	c-0.892,0.694-1.796,1.374-2.698,2.056c 6.71,19.502, 10.362,40.422, 10.362,62.194C 704,874.262, 618.040,960, 512,960s-192-85.738-192-191.5
	c0-21.772, 3.65-42.692, 10.362-62.194c-0.9-0.684-1.804-1.362-2.698-2.056l-174.68,0 l-57.94,231.76l-62.090-15.522l 70.060-280.24l 161.944,0 
	C 225.074,587.026, 199.152,520.686, 193.29,448L0,448 l0-64 l 193.37,0 c 3.802-45.664, 15.508-88.812, 33.638-127.75L 103.016,256.25 l-70.060-280.238
	l 62.090-15.524l 57.94,231.762l 112.354,0 C 324.032,114.218, 412.736,64.5, 512,64.5s 187.966,49.718, 246.662,127.75l 112.354,0 l 57.94-231.762
	l 62.090,15.524l-70.060,280.238l-123.992,0 c 18.13,38.938, 29.836,82.086, 33.636,127.75L 1024,384 z" data-tags="bug, virus, error" />
<glyph unicode="&#xe095;" d="M 448,384L 448,832 C 200.576,832,0,631.424,0,384s 200.576-448, 448-448s 448,200.576, 448,448c0,72.034-17.028,140.084-47.236,200.382
		L 448,384zM 912.764,712.382C 839.212,859.198, 687.39,960, 512,960l0-448 L 912.764,712.382z" data-tags="pie, statistics, stats, chart, graph" />
<glyph unicode="&#xe096;" d="M 128,64 L 1024,64 L 1024-64 L 0-64 L 0,960 L 128,960 ZM 288,128 C 234.98,128 192,170.98 192,224 C 192,277.020 234.98,320 288,320 C 290.828,320 293.622,319.852 296.388,319.614 L 399.58,491.6 C 389.74,506.67 384,524.662 384,544.002 C 384,597.022 426.98,640.002 480,640.002 C 533.020,640.002 576,597.022 576,544.002 C 576,524.66 570.26,506.67 560.42,491.6 L 663.612,319.614 C 666.378,319.852 669.172,320 672,320 C 674.136,320 676.248,319.906 678.35,319.77 L 848.706,617.892 C 838.17,633.3 832,651.928 832,672.002 C 832,725.022 874.98,768.002 928,768.002 C 981.020,768.002 1024,725.022 1024,672.002 C 1024,618.982 981.020,576.002 928,576.002 C 925.86,576.002 923.752,576.096 921.65,576.234 L 751.294,278.11 C 761.83,262.704 768,244.074 768,224 C 768,170.98 725.020,128 672,128 C 618.98,128 576,170.98 576,224 C 576,243.34 581.74,261.332 591.578,276.402 L 488.388,448.386 C 485.622,448.148 482.828,448 480,448 C 477.172,448 474.378,448.146 471.612,448.386 L 368.42,276.4 C 378.26,261.332 384,243.34 384,224 C 384,170.98 341.020,128 288,128 Z" data-tags="stats, graph, plot, statistics, chart" />
<glyph unicode="&#xe097;" d="M0,128L 1024,128L 1024,0L0,0zM 128,384L 256,384L 256,192L 128,192zM 320,640L 448,640L 448,192L 320,192zM 512,448L 640,448L 640,192L 512,192zM 704,832L 832,832L 832,192L 704,192z" data-tags="bars, statistics, stats, chart, graph" />
<glyph unicode="&#xe098;" d="M 288,576L 96,576 c-17.6,0-32-14.4-32-32l0-576 c0-17.6, 14.4-32, 32-32l 192,0 c 17.6,0, 32,14.4, 32,32L 320,544 C 320,561.6, 305.6,576, 288,576z M 288,0
		L 96,0 L 96,256 l 192,0 L 288,0 zM 608,704l-192,0 c-17.6,0-32-14.4-32-32l0-704 c0-17.6, 14.4-32, 32-32l 192,0 c 17.6,0, 32,14.4, 32,32L 640,672 C 640,689.6, 625.6,704, 608,704z
		 M 608,0l-192,0 L 416,320 l 192,0 L 608,0 zM 928,832l-192,0 c-17.6,0-32-14.4-32-32l0-832 c0-17.6, 14.4-32, 32-32l 192,0 c 17.6,0, 32,14.4, 32,32L 960,800 C 960,817.6, 945.6,832, 928,832z M 928,0l-192,0 
		L 736,384 l 192,0 L 928,0 z" data-tags="bars, stats, statistics, chart, graph" />
<glyph unicode="&#xe099;" d="M 771.516,640c 18.126,12.88, 35.512,27.216, 51.444,43.148c 33.402,33.402, 55.746,74.5, 62.912,115.722
	c 7.858,45.186-3.672,87.14-31.63,115.1c-22.3,22.298-52.51,34.086-87.364,34.086c-49.632,0-101.922-23.824-143.46-65.362
	c-66.476-66.476-105.226-158.238-126.076-223.722c-15.44,65.802-46.206,154.644-106.018,214.458C 359.23,905.522, 318.21,922, 279.478,922
	c-31.654,0-61.78-11.004-84.26-33.486c-49.986-49.988-43.232-137.786, 15.086-196.104c 20.792-20.792, 45.098-38.062, 70.72-52.412L 64,639.998 l0-256 
	l 64,0 l0-448 l 768,0 L 896,384 l 64,0 L 960,640 L 771.516,640 z M 674.326,831.782c 27.724,27.724, 62.322,44.274, 92.55,44.274c 10.7,0, 25.708-2.254, 36.45-12.998
	c 26.030-26.028, 11.412-86.308-31.28-128.998c-43.946-43.946-103.060-74.168-154.432-94.060l-50.672,0 
	C 585.51,697.548, 619,776.456, 674.326,831.782z M 233.934,799.11c-0.702,9.12-0.050,26.248, 12.196,38.494
	C 256.374,847.848, 269.918,850, 279.478,850l0,0 c 21.258,0, 43.468-10.016, 60.932-27.48c 33.872-33.872, 61.766-87.772, 80.668-155.876
	c 0.51-1.84, 1.008-3.67, 1.496-5.486c-1.816,0.486-3.646,0.984-5.486,1.496c-68.104,18.904-122.002,46.798-155.874,80.67
	C 245.386,759.15, 235.444,779.484, 233.934,799.11z M 448,0L 192,0 L 192,416 l 256,0 L 448,0 z M 448,448L 128,448 l0,128 l 320,0 L 448,448 z M 832,0L 576,0 L 576,416 l 256,0 L 832,0 z
	 M 896,448L 576,448 l0,128 l 320,0 L 896,448 z" data-tags="gift, box, present" />
<glyph unicode="&#xe09a;" d="M 832,768L 832,896 L 192,896 l0-128 L0,768 l0-64 l0-64 c0-106.038, 85.958-192, 192-192c 20.076,0, 39.43,3.086, 57.62,8.802
	c 46.174-66.008, 116.608-113.796, 198.38-130.396L 448,128 l-64,0 c-70.694,0-128-57.306-128-128l 512,0 c0,70.694-57.306,128-128,128l-64,0 l0,198.406 
	c 81.772,16.6, 152.206,64.386, 198.38,130.396C 792.57,451.086, 811.924,448, 832,448c 106.042,0, 192,85.962, 192,192l0,64 L 1024,768 L 832,768 z M 192,524
	c-63.962,0-116,52.038-116,116l0,64 l 116,0 l0-64 c0-40.186, 7.43-78.632, 20.954-114.068C 206.152,524.686, 199.156,524, 192,524z M 948,640
	c0-63.962-52.038-116-116-116c-7.156,0-14.152,0.686-20.954,1.932C 824.57,561.368, 832,599.814, 832,640l0,64 l 116,0 L 948,640 z" data-tags="trophy, cup, prize, award, winner, tournament" />
<glyph unicode="&#xe09b;" d="M 608,576 C 576,544 576,544 576,512 L 576,64 L 704,64 C 739.346,64 768,35.346 768,0 L 256,0 C 256,35.346 284.654,64 320,64 L 448,64 L 448,512 C 448,544 448,544 416,576 L 141.254,850.746 C 116.364,875.636 124.8,896 160,896 L 864,896 C 899.2,896 907.634,875.636 882.746,850.746 L 608.010,576.010 C 608.006,576.006 608.004,576.002 608,576 Z" data-tags="glass, drink, beverage" />
<glyph unicode="&#xe09c;" d="M 832,640l-64,0 l0,96 c0,88.366-171.922,160-384,160C 171.922,896,0,824.366,0,736l0-576 c0-88.366, 171.922-160, 384-160
	c 212.078,0, 384,71.634, 384,160l0,96 l 64,0 c 105.6,0, 192,86.4, 192,192S 937.6,640, 832,640z M 176.056,770.398C 233.998,789.488, 307.846,800, 384,800
	s 150.004-10.512, 207.944-29.602c 36.994-12.188, 59.408-25.246, 71.41-34.398c-12.002-9.152-34.416-22.208-71.41-34.398
	C 534.004,682.512, 460.154,672, 384,672s-150.002,10.512-207.944,29.602C 139.062,713.792, 116.648,726.848, 104.646,736
	C 116.648,745.152, 139.062,758.208, 176.056,770.398z M 904.364,391.636C 895.536,382.808, 876.474,368, 848,368l-80,0 l0,160 l 80,0 
	c 28.474,0, 47.536-14.81, 56.364-23.638S 928,476.474, 928,448S 913.192,400.464, 904.364,391.636z" data-tags="mug, glass, beverage" />
</font>
</defs>
</svg>
